<svg xmlns="http://www.w3.org/2000/svg" version="1.1" xmlns:xlink="http://www.w3.org/1999/xlink" xmlns:svgjs="http://svgjs.com/svgjs" width="512" height="512" x="0" y="0" viewBox="0 0 66 66" style="enable-background:new 0 0 512 512" xml:space="preserve" class=""><g><path d="M28.02 30.54h14.5a.95.95 0 1 0 0-1.9h-14.5a.95.95 0 0 0-.95.95c-.01.53.42.95.95.95zM28.02 36.05h14.5a.95.95 0 1 0 0-1.9h-14.5a.95.95 0 0 0-.95.95c-.01.52.42.95.95.95zM28.02 41.55h14.5a.95.95 0 1 0 0-1.9h-14.5a.95.95 0 0 0-.95.95c-.01.52.42.95.95.95z" fill="#13a6ce" data-original="#000000" class=""></path><path d="M61.64 54.56H42.25v-4.83h3.22c2.1 0 3.81-1.71 3.81-3.81V42.6h3.78a3.82 3.82 0 0 0 3.82-3.82v-1.14h4.76a2.86 2.86 0 1 0 0-5.72h-4.76v-1.21a3.82 3.82 0 0 0-3.82-3.82h-3.78v-2.64c0-2.1-1.71-3.81-3.81-3.81h-1.2c.73-1.42 1.11-2.98 1.11-4.61 0-5.58-4.54-10.12-10.12-10.12s-10.12 4.54-10.12 10.12c0 1.63.38 3.2 1.11 4.61h-3.1v-.64a.95.95 0 0 0-.95-.95H11.04c-4.74 0-8.59 3.85-8.59 8.59v15.3c0 4.74 3.85 8.59 8.59 8.59h1.89v3.23H4.36a2.86 2.86 0 1 0 0 5.72h57.28a2.86 2.86 0 1 0 0-5.72zm-39.43-3.23c.53 0 .95-.43.95-.95v-.64h13.15v4.83H18.87v-3.23h3.34zm18.13 3.23h-2.12v-4.83h2.12zm21.3-20.72c.52 0 .95.43.95.95s-.43.95-.95.95h-4.76v-1.9zm-8.57-5.02c1.05 0 1.91.86 1.91 1.91v8.06c0 1.05-.86 1.91-1.91 1.91h-3.78V28.82zM35.27 7.63c4.53 0 8.21 3.68 8.21 8.21 0 1.82-.58 3.55-1.69 4.99-1.56 2.05-3.94 3.23-6.52 3.23s-4.96-1.18-6.52-3.23a8.168 8.168 0 0 1-1.69-4.99c0-4.53 3.68-8.21 8.21-8.21zm-7.72 14.73c1.93 2.29 4.7 3.61 7.72 3.61s5.79-1.32 7.72-3.61h2.48c1.05 0 1.9.85 1.9 1.9v21.66a1.9 1.9 0 0 1-1.9 1.9h-22.3V22.36zM4.36 42.74v-15.3c0-3.68 3-6.68 6.68-6.68h10.22V49.41H11.04c-3.68.01-6.68-2.99-6.68-6.67zm10.48 8.59h2.12v3.23h-2.12zm46.8 7.04H4.36c-.52 0-.95-.43-.95-.95s.43-.95.95-.95h57.28c.52 0 .95.43.95.95s-.43.95-.95.95z" fill="#13a6ce" data-original="#000000" class=""></path><path d="M12.81 24.94H7.89a.95.95 0 1 0 0 1.9h4.92a.95.95 0 1 0 0-1.9zM12.81 29.38H7.89a.95.95 0 1 0 0 1.9h4.92a.95.95 0 1 0 0-1.9zM33.14 16.72h2.79l-1.92 4.35c-.21.48.01 1.05.49 1.26.13.06.26.08.38.08.37 0 .72-.21.87-.57l2.52-5.69c.13-.3.1-.64-.07-.91a.961.961 0 0 0-.8-.43h-2.75l1.98-4.17a.953.953 0 0 0-1.72-.82l-2.62 5.53c-.14.3-.12.64.06.92.16.28.47.45.79.45z" fill="#13a6ce" data-original="#000000" class=""></path></g></svg>