<svg xmlns="http://www.w3.org/2000/svg" version="1.1" xmlns:xlink="http://www.w3.org/1999/xlink" xmlns:svgjs="http://svgjs.com/svgjs" width="512" height="512" x="0" y="0" viewBox="0 0 75 75" style="enable-background:new 0 0 512 512" xml:space="preserve" class=""><g><path d="m67.2 31.9-12.6-2.2v-.8c0-2.2-1.8-4-4-4h-1.4v-6.4c2.1-1.4 3.4-3.7 3.4-6.3 0-4.2-3.4-7.6-7.6-7.6-3.8 0-6.9 2.7-7.5 6.3-8.5 7.6-18 14.4-29.2 14.3-1.9 0-3.4 1.3-3.7 3.1-.4 2.2 1.2 4.4 3.9 4.4 6 0 11.6-1.6 16.6-4l10.5 5.1V42c0 2.2 1.8 4 4 4H41v16.7h-4.1c-2.5 0-4.5 2-4.5 4.5v2.2c0 .6.4 1 1 1h23.5c.6 0 1-.4 1-1v-2.2c0-2.5-2-4.5-4.5-4.5h-4.1V46h1.4c2.2 0 4-1.8 4-4v-1.4l7.1.8v3.4c0 .6.4 1 1 1h6.7c.6 0 1-.4 1-1v-9c0-1.9-1.4-3.5-3.3-3.9zM45.1 6.6c3.1 0 5.6 2.5 5.6 5.6s-2.5 5.6-5.6 5.6-5.6-2.5-5.6-5.6 2.5-5.6 5.6-5.6zm2.1 12.8v5.5h-4.3v-5.5c.7.2 1.4.3 2.2.3.7 0 1.4-.1 2.1-.3zM8.3 30.7c-1.1 0-2-1-1.8-2.1.1-.8.9-1.5 1.8-1.5 11.3.1 20.7-6.3 29.3-13.7.2 1.2.8 2.4 1.5 3.3-7.8 6.8-18.3 14.1-30.8 14zm27.2-1.8v2.7l-8.2-4c5-2.7 9.5-6.1 13.3-9.4.1.1.2.2.3.2v6.4h-1.4c-2.2.1-4 1.9-4 4.1zm17.8 35.9c1.4 0 2.5 1.1 2.5 2.5v1.2H34.3v-1.2c0-1.4 1.1-2.5 2.5-2.5zm-10.4-2V46h4.3v16.7h-4.3zM52.6 42c0 1.1-.9 2-2 2H39.5c-1.1 0-2-.9-2-2V28.9c0-1.1.9-2 2-2h11.1c1.1 0 2 .9 2 2zm15.9 1.9h-4.7v-3.3c0-.5-.4-.9-.9-1l-8.2-.9v-6.9L66.9 34c1 .2 1.6 1 1.6 2z" fill="#13a6ce" data-original="#000000" class=""></path><path d="M66.2 58.9c1.9 0 3.4-1.5 3.4-3.4 0-1.5-1.9-4.7-2.5-5.7-.4-.6-1.3-.6-1.7 0-.6 1-2.5 4.2-2.5 5.7-.1 1.9 1.4 3.4 3.3 3.4zm0-6.6c.8 1.4 1.4 2.7 1.4 3.2 0 .8-.6 1.4-1.4 1.4s-1.4-.6-1.4-1.4c0-.4.6-1.8 1.4-3.2z" fill="#13a6ce" data-original="#000000" class=""></path></g></svg>