<svg xmlns="http://www.w3.org/2000/svg" version="1.1" xmlns:xlink="http://www.w3.org/1999/xlink" xmlns:svgjs="http://svgjs.com/svgjs" width="512" height="512" x="0" y="0" viewBox="0 0 91 91" style="enable-background:new 0 0 512 512" xml:space="preserve" class=""><g><path d="M41 84.74a1.29 1.29 0 0 1-.54-.12L3.22 66.7a1.24 1.24 0 0 1-.7-1.12v-40a1.22 1.22 0 0 1 .58-1 1.21 1.21 0 0 1 1.19-.07l37.22 17.83a1.24 1.24 0 0 1 .7 1.12v40.05a1.22 1.22 0 0 1-.58 1 1.21 1.21 0 0 1-.63.23zM5 64.81l34.73 16.73V44.23L5 27.5z" fill="#13a6ce" data-original="#000000"></path><path d="M41 44.67a1.16 1.16 0 0 1-.54-.13L3.22 26.63a1.24 1.24 0 0 1-.7-1.12 1.23 1.23 0 0 1 .7-1.11L40.45 6.52a1.19 1.19 0 0 1 1.07 0l37.21 17.91a1.25 1.25 0 0 1 0 2.24L41.51 44.54a1.16 1.16 0 0 1-.51.13zM6.61 25.51 41 42.06l34.34-16.51L41 9z" fill="#13a6ce" data-original="#000000"></path><path d="M41 84.74a1.21 1.21 0 0 1-.66-.19 1.22 1.22 0 0 1-.58-1V43.46a1.26 1.26 0 0 1 .7-1.12l37.19-17.92a1.21 1.21 0 0 1 1.19.07 1.22 1.22 0 0 1 .58 1v17.9a1.24 1.24 0 1 1-2.47 0V27.5L42.21 44.23v37.31l20.38-9.82A1.24 1.24 0 0 1 63.66 74L41.51 84.62a1.29 1.29 0 0 1-.51.12z" fill="#13a6ce" data-original="#000000"></path><path d="M29.53 60.34a1.23 1.23 0 0 1-1-.5L20.9 49.51 15 52.83a1.25 1.25 0 0 1-1.23 0 1.23 1.23 0 0 1-.61-1.07V30.62a1.23 1.23 0 0 1 .7-1.11l20.48-9.92a1.22 1.22 0 0 1 1.07 0l15.19 7.3a1.24 1.24 0 0 1 0 2.23l-19.83 9.57V59.1a1.25 1.25 0 0 1-.85 1.18 1.32 1.32 0 0 1-.39.06zm-8.29-13.68a1.25 1.25 0 0 1 1 .5l6.05 8.19V37.92A1.24 1.24 0 0 1 29 36.8L47.21 28l-12.35-5.93-19.24 9.33v18.24l5-2.82a1.2 1.2 0 0 1 .62-.16zM48.81 72.14a1.24 1.24 0 0 1-.53-2.35l7.09-3.43a1.26 1.26 0 0 1 1.66.58 1.23 1.23 0 0 1-.58 1.65L49.35 72a1.29 1.29 0 0 1-.54.14zM48.81 64.48a1.24 1.24 0 0 1-.53-2.35l4.8-2.32A1.24 1.24 0 1 1 54.15 62l-4.8 2.31a1.16 1.16 0 0 1-.54.17z" fill="#13a6ce" data-original="#000000"></path><path d="M71.14 77.87h-.08a1.15 1.15 0 0 1-.37-.06C50.11 71.32 54 47.56 54 47.32a1.25 1.25 0 0 1 .77-.94l15.82-6.22a1.12 1.12 0 0 1 .45-.08 1.59 1.59 0 0 1 .53.08l15.83 6.22a1.25 1.25 0 0 1 .77.94c0 .24 3.91 24-16.66 30.49a1.19 1.19 0 0 1-.37.06zM56.37 48.42A33.93 33.93 0 0 0 57 59.54c1.84 8 6.6 13.32 14.14 15.8 7.53-2.48 12.29-7.8 14.14-15.8a34.13 34.13 0 0 0 .58-11.12L71.1 42.63z" fill="#13a6ce" data-original="#000000"></path><path d="M71.07 65.14a1.24 1.24 0 0 1-1-.5l-4.39-5.87a1.24 1.24 0 0 1 2-1.48l3.4 4.55 7.67-10.09a1.24 1.24 0 1 1 2 1.5l-8.67 11.4a1.21 1.21 0 0 1-1.01.49z" fill="#13a6ce" data-original="#000000"></path></g></svg>