<svg xmlns="http://www.w3.org/2000/svg" version="1.1" xmlns:xlink="http://www.w3.org/1999/xlink" xmlns:svgjs="http://svgjs.com/svgjs" width="512" height="512" x="0" y="0" viewBox="0 0 64 64" style="enable-background:new 0 0 512 512" xml:space="preserve" class=""><g><path d="M32.962 43.479H16.923a1 1 0 0 1-1-1V29.026a1 1 0 0 1 1-1h16.039a1 1 0 0 1 1 1v13.453a1 1 0 0 1-1 1zm-15.039-2h14.039V30.026H17.923zM40.558 47.85h-2V29.026a1 1 0 0 1 1-1h.7a7.863 7.863 0 0 1 7.558 5.574l-1.912.587a5.87 5.87 0 0 0-5.346-4.156z" fill="#13a6ce" data-original="#000000" class=""></path><path d="M31.6 56.851H3.083a1 1 0 0 1-1-1V35.929a7.912 7.912 0 0 1 7.9-7.9h.342a1 1 0 0 1 1 1v25.822H31.6zm-27.513-2h5.241V30.063a5.91 5.91 0 0 0-5.245 5.866z" fill="#13a6ce" data-original="#000000" class=""></path><path d="M13.625 46.842a4.3 4.3 0 0 1-4.3-4.3V27.905a1 1 0 0 1 1-1h6.595a1 1 0 0 1 1 1v14.639a4.3 4.3 0 0 1-4.295 4.298zm-2.3-17.937v13.639a2.3 2.3 0 1 0 4.6 0V28.905zM36.26 46.842a4.3 4.3 0 0 1-4.3-4.3V27.905a1 1 0 0 1 1-1h6.6a1 1 0 0 1 1 1v14.639a4.3 4.3 0 0 1-4.3 4.298zm-2.3-17.937v13.639a2.3 2.3 0 0 0 4.6 0V28.905z" fill="#13a6ce" data-original="#000000" class=""></path><path d="M11.328 55.851h-2V42.544a1 1 0 0 1 2 0 2.3 2.3 0 1 0 4.6 0 1.057 1.057 0 0 1 1-1.065h16.034a1 1 0 0 1 1 1 2.3 2.3 0 1 0 4.6.065 1 1 0 0 1 2 0v5.306h-2v-1.675a4.3 4.3 0 0 1-6.494-2.7H17.812a4.288 4.288 0 0 1-6.484 2.7z" fill="#13a6ce" data-original="#000000" class=""></path><path d="M35.26 38.915h2v3.043h-2zM12.625 38.915h2v3.043h-2zM3.083 49.526h7.426v2H3.083zM2.771 45.38h7.87v2h-7.87zM24.942 29.932a9.8 9.8 0 0 1-6.955-3.006 13.108 13.108 0 0 1-3.625-9.315V15h2v2.619a11.105 11.105 0 0 0 3.044 7.9 7.554 7.554 0 0 0 11.073 0 11.086 11.086 0 0 0 3.044-7.853v-2.925h2v2.869a13.1 13.1 0 0 1-3.623 9.316 9.8 9.8 0 0 1-6.958 3.006z" fill="#13a6ce" data-original="#000000" class=""></path><path d="M24.942 34.681a6.493 6.493 0 0 1-5.042-2.389l-2.154-2.633a1 1 0 0 1 .774-1.633h12.846a1 1 0 0 1 .774 1.633l-2.155 2.633a6.493 6.493 0 0 1-5.043 2.389zm-4.312-4.655.818 1a4.517 4.517 0 0 0 6.989 0l.818-1zM31.909 18.615H17.977A3.619 3.619 0 0 1 14.362 15v-1.4a1 1 0 0 1 1-1h19.161a1 1 0 0 1 1 1V15a3.619 3.619 0 0 1-3.614 3.615zM16.362 14.6v.4a1.617 1.617 0 0 0 1.615 1.615h13.932A1.617 1.617 0 0 0 33.523 15v-.4z" fill="#13a6ce" data-original="#000000" class=""></path><path d="M35.523 14.3h-2V9.388a6.538 6.538 0 0 0-6.53-6.531h-4.1a6.539 6.539 0 0 0-6.531 6.531V14.3h-2V9.388A8.54 8.54 0 0 1 22.893.857h4.1a8.54 8.54 0 0 1 8.53 8.531z" fill="#13a6ce" data-original="#000000" class=""></path><path d="M26.7 11.843h-3.5a3.272 3.272 0 0 1-3.268-3.268v-.561a3.272 3.272 0 0 1 3.258-3.268h3.5a3.271 3.271 0 0 1 3.268 3.268v.561a3.271 3.271 0 0 1-3.258 3.268zm-3.5-5.1a1.27 1.27 0 0 0-1.268 1.268v.561a1.27 1.27 0 0 0 1.258 1.271h3.5a1.269 1.269 0 0 0 1.268-1.268v-.561A1.269 1.269 0 0 0 26.7 6.746zM48.582 50.166a1 1 0 0 1-.707-.293L42.7 44.7a1 1 0 0 1 0-1.414l1.991-1.986a1 1 0 0 1 1.414 0l5.171 5.17a1 1 0 0 1 0 1.414l-1.987 1.987a1 1 0 0 1-.707.295zM44.825 44l3.757 3.757.573-.573-3.755-3.761z" fill="#13a6ce" data-original="#000000" class=""></path><path d="M34.485 62.74a4.654 4.654 0 0 1-3.293-7.946l2.9-2.9a.97.97 0 0 1 .067-.061l10.106-10.104a9.387 9.387 0 0 1 11.654-11.5 1 1 0 0 1 .432 1.668l-4.772 4.771 1 3.33 3.329 1 4.772-4.77a1 1 0 0 1 1.668.431 9.387 9.387 0 0 1-11.5 11.654L38.691 60.472a.763.763 0 0 1-.073.066l-.841.841a4.637 4.637 0 0 1-3.292 1.361zm.955-9.364-2.834 2.832a2.657 2.657 0 1 0 3.757 3.757l.911-.911c.024-.024.048-.045.073-.067l12.515-12.515a1 1 0 0 1 1.034-.239 7.384 7.384 0 0 0 9.816-7.208l-3.812 3.81a1 1 0 0 1-1 .251l-4.41-1.328a1 1 0 0 1-.67-.67l-1.329-4.417a1 1 0 0 1 .251-.995l3.81-3.81a7.422 7.422 0 0 0-5.46 2.16 7.345 7.345 0 0 0-1.748 7.656 1 1 0 0 1-.239 1.034l-10.6 10.6c-.019.019-.042.04-.065.06z" fill="#13a6ce" data-original="#000000" class=""></path><circle cx="35.018" cy="57.412" r="1.143" fill="#13a6ce" data-original="#000000" class=""></circle></g></svg>