<svg xmlns="http://www.w3.org/2000/svg" version="1.1" xmlns:xlink="http://www.w3.org/1999/xlink" xmlns:svgjs="http://svgjs.com/svgjs" width="512" height="512" x="0" y="0" viewBox="0 0 64 64" style="enable-background:new 0 0 512 512" xml:space="preserve" class=""><g><g data-name="Valve-Pipes-Industry-Water-Gas Pipe"><path d="M62 39h-9.14a3.983 3.983 0 0 0-7.72 0H41v-3.14A3.993 3.993 0 0 0 40 28h-2v-5a1 1 0 0 0-1-1h-1v-4h1a1 1 0 0 0 1-1v-3h8a4 4 0 1 0-3.44-6h-7.12a3.958 3.958 0 0 0-6.88 0h-7.12A3.991 3.991 0 1 0 18 14h8v3a1 1 0 0 0 1 1h1v4h-1a1 1 0 0 0-1 1v5h-2a3.993 3.993 0 0 0-1 7.86V39h-4.14a3.983 3.983 0 0 0-7.72 0H2a1 1 0 0 0-1 1v14a1 1 0 0 0 1 1h9.14a3.983 3.983 0 0 0 7.72 0h4.95c.93.36 5.32 2 8.19 2s7.26-1.64 8.19-2h4.95a3.983 3.983 0 0 0 7.72 0H62a1 1 0 0 0 1-1V40a1 1 0 0 0-1-1zM46 8a2 2 0 1 1-2 2 2.006 2.006 0 0 1 2-2zm-28 4a2 2 0 1 1 2-2 2.006 2.006 0 0 1-2 2zm-7 41H3V41h8zm6 1a2 2 0 0 1-4 0V40a2 2 0 0 1 4 0zm6-1h-4V41h4zm13-43h6a3.906 3.906 0 0 0 .56 2h-7.12a3.906 3.906 0 0 0 .56-2zm-4-2a2 2 0 1 1-2 2 2.006 2.006 0 0 1 2-2zm4 6v2h-8v-2zm-2 4v4h-4v-4zm-12.56-6a3.906 3.906 0 0 0 .56-2h6a3.906 3.906 0 0 0 .56 2zM28 24h8v4h-8zm11 29.31A25.125 25.125 0 0 1 32 55a25.213 25.213 0 0 1-7-1.69V36h14zM40 34H24a2 2 0 0 1 0-4h16a2 2 0 0 1 0 4zm5 19h-4V41h4zm6 1a2 2 0 0 1-4 0V40a2 2 0 0 1 4 0zm10-1h-8V41h8z" fill="#13a6ce" data-original="#000000" class=""></path><path d="M5 43h2v2H5zM55 43h4v2h-4zM32 51a11.325 11.325 0 0 1-4.556-.9l-.891 1.8A13.128 13.128 0 0 0 32 53a13.128 13.128 0 0 0 5.447-1.1l-.894-1.79A11.113 11.113 0 0 1 32 51z" fill="#13a6ce" data-original="#000000" class=""></path></g></g></svg>