<svg xmlns="http://www.w3.org/2000/svg" version="1.1" xmlns:xlink="http://www.w3.org/1999/xlink" xmlns:svgjs="http://svgjs.com/svgjs" width="512" height="512" x="0" y="0" viewBox="0 0 682.667 682.667" style="enable-background:new 0 0 512 512" xml:space="preserve" class=""><g><defs><clipPath id="a" clipPathUnits="userSpaceOnUse"><path d="M0 512h512V0H0Z" fill="#13a6ce" data-original="#000000"></path></clipPath></defs><g clip-path="url(#a)" transform="matrix(1.33333 0 0 -1.33333 0 682.667)"><path d="M0 0c-22.366 14.229-50.429 15.874-74.126 4.904l41.414-41.386-8.107-29.707-29.707-8.108-41.386 41.415c-13.266-28.659-8.079-63.752 15.534-87.393 22.082-22.053 54.113-28.034 81.581-17.943l36.51-36.482m45.978 45.978L31.209-92.211c8.193 22.365 5.755 47.763-7.313 68.315m158.089-350.817c23.981-13.579 54.992-10.148 75.43 10.289 24.548 24.577 24.548 64.376 0 88.952-16.158 16.129-38.892 21.657-59.556 16.583L94.621-155.651m-45.978-45.978 103.238-103.239a63.05 63.05 0 0 1 6.293-46.034" style="stroke-width:14.995;stroke-linecap:round;stroke-linejoin:round;stroke-miterlimit:10;stroke-dasharray:none;stroke-opacity:1" transform="translate(197.833 492.439)" fill="none" stroke="#13a6ce" stroke-width="14.995" stroke-linecap="round" stroke-linejoin="round" stroke-miterlimit="10" stroke-dasharray="none" stroke-opacity="" data-original="#000000" class=""></path><path d="M0 0c9.553-9.553 25.03-9.553 34.583 0 9.552 9.553 9.552 25.03 0 34.583-9.553 9.552-25.03 9.552-34.583 0C-9.553 25.03-9.553 9.553 0 0Z" style="stroke-width:14.995;stroke-linecap:round;stroke-linejoin:round;stroke-miterlimit:10;stroke-dasharray:none;stroke-opacity:1" transform="translate(393.48 155.2)" fill="none" stroke="#13a6ce" stroke-width="14.995" stroke-linecap="round" stroke-linejoin="round" stroke-miterlimit="10" stroke-dasharray="none" stroke-opacity="" data-original="#000000" class=""></path><path d="m0 0 103.238-103.238M-66.047 66.048l39.118-39.118" style="stroke-width:14.995;stroke-linecap:round;stroke-linejoin:round;stroke-miterlimit:10;stroke-dasharray:none;stroke-opacity:1" transform="translate(269.464 313.798)" fill="none" stroke="#13a6ce" stroke-width="14.995" stroke-linecap="round" stroke-linejoin="round" stroke-miterlimit="10" stroke-dasharray="none" stroke-opacity="" data-original="#000000" class=""></path><path d="m0 0-100.035-100.007-26.928 26.929L25.824 79.71l26.929-26.929L24.01 24.038" style="stroke-width:14.995;stroke-linecap:round;stroke-linejoin:round;stroke-miterlimit:10;stroke-dasharray:none;stroke-opacity:1" transform="translate(321.225 365.531)" fill="none" stroke="#13a6ce" stroke-width="14.995" stroke-linecap="round" stroke-linejoin="round" stroke-miterlimit="10" stroke-dasharray="none" stroke-opacity="" data-original="#000000" class=""></path><path d="m0 0 26.929-26.929-32.343-50.259-26.929-8.985-26.929 26.928 8.985 26.93z" style="stroke-width:14.995;stroke-linecap:round;stroke-linejoin:round;stroke-miterlimit:10;stroke-dasharray:none;stroke-opacity:1" transform="translate(406.321 504.486)" fill="none" stroke="#13a6ce" stroke-width="14.995" stroke-linecap="round" stroke-linejoin="round" stroke-miterlimit="10" stroke-dasharray="none" stroke-opacity="" data-original="#000000" class=""></path><path d="m0 0 61.059-61.058c9.382-9.383 9.382-24.718 0-34.101-9.383-9.383-24.746-9.383-34.129 0l-61.031 61.03c-9.382 9.382-9.382 24.746 0 34.129C-24.718 9.383-9.382 9.383 0 0Z" style="stroke-width:14.995;stroke-linecap:round;stroke-linejoin:round;stroke-miterlimit:10;stroke-dasharray:none;stroke-opacity:1" transform="translate(177.196 309.518)" fill="none" stroke="#13a6ce" stroke-width="14.995" stroke-linecap="round" stroke-linejoin="round" stroke-miterlimit="10" stroke-dasharray="none" stroke-opacity="" data-original="#000000" class=""></path><path d="m0 0-99.185-99.213c-7.398-7.398-19.53-7.398-26.929 0l-34.101 34.13c-7.427 7.398-7.427 19.53 0 26.928L-61.03 61.03Z" style="stroke-width:14.995;stroke-linecap:round;stroke-linejoin:round;stroke-miterlimit:10;stroke-dasharray:none;stroke-opacity:1" transform="translate(204.125 214.359)" fill="none" stroke="#13a6ce" stroke-width="14.995" stroke-linecap="round" stroke-linejoin="round" stroke-miterlimit="10" stroke-dasharray="none" stroke-opacity="" data-original="#000000" class=""></path><path d="m0 0-64.318-64.29" style="stroke-width:14.995;stroke-linecap:round;stroke-linejoin:round;stroke-miterlimit:10;stroke-dasharray:none;stroke-opacity:1" transform="translate(149.445 220.68)" fill="none" stroke="#13a6ce" stroke-width="14.995" stroke-linecap="round" stroke-linejoin="round" stroke-miterlimit="10" stroke-dasharray="none" stroke-opacity="" data-original="#000000" class=""></path><path d="m0 0 25.285 25.313c4.026 3.997 10.602 3.997 14.627 0l74.609-74.607c4.024-4.026 4.024-10.602 0-14.627L39.912-138.53c-4.025-4.025-10.601-4.025-14.627 0l-74.608 74.609c-4.025 4.025-4.025 10.601 0 14.627l25.285 25.285" style="stroke-width:14.995;stroke-linecap:round;stroke-linejoin:round;stroke-miterlimit:10;stroke-dasharray:none;stroke-opacity:1" transform="translate(223.4 149.048)" fill="none" stroke="#13a6ce" stroke-width="14.995" stroke-linecap="round" stroke-linejoin="round" stroke-miterlimit="10" stroke-dasharray="none" stroke-opacity="" data-original="#000000" class=""></path><path d="m0 0-19.956-25.229 28.743-12.67L-11.168-63.1" style="stroke-width:14.995;stroke-linecap:round;stroke-linejoin:round;stroke-miterlimit:10;stroke-dasharray:none;stroke-opacity:1" transform="translate(261.584 123.99)" fill="none" stroke="#13a6ce" stroke-width="14.995" stroke-linecap="round" stroke-linejoin="round" stroke-miterlimit="10" stroke-dasharray="none" stroke-opacity="" data-original="#000000" class=""></path></g></g></svg>