<svg id="Layer_1" data-name="Layer 1" xmlns="http://www.w3.org/2000/svg" viewBox="0 0 488.74 423.33"><defs><style>.cls-1{fill:#fff;}</style></defs><path class="cls-1" d="M217.37,236.92H329.85a7.37,7.37,0,1,0,0-14.74H217.37a7.37,7.37,0,0,0-7.37,7.37h0a7.27,7.27,0,0,0,7.37,7.37Zm0,42.74H329.85a7.37,7.37,0,0,0,0-14.74H217.37a7.37,7.37,0,0,0-7.37,7.37h0A7.32,7.32,0,0,0,217.37,279.66Zm0,42.67H329.85a7.37,7.37,0,0,0,0-14.74H217.37A7.37,7.37,0,0,0,210,315h0A7.32,7.32,0,0,0,217.37,322.33Z" transform="translate(-11.64 -44.3)"/><path class="cls-1" d="M478.18,423.25H327.76V385.78h25a29.59,29.59,0,0,0,29.55-29.55V330.47h29.33a29.63,29.63,0,0,0,29.63-29.63V292h36.93a22.19,22.19,0,0,0,0-44.38H441.25v-9.38a29.64,29.64,0,0,0-29.63-29.64H382.29V188.12a29.6,29.6,0,0,0-29.55-29.56h-9.31A77.71,77.71,0,0,0,352,122.8a78.51,78.51,0,0,0-157,0,77.35,77.35,0,0,0,8.61,35.76h-24v-5a7.37,7.37,0,0,0-7.37-7.37H85.64A66.68,66.68,0,0,0,19,212.87V331.56A66.68,66.68,0,0,0,85.64,398.2h14.67v25.05H33.82a22.19,22.19,0,0,0,0,44.38H478.18a22.19,22.19,0,0,0,0-44.38ZM172.3,398.2a7.37,7.37,0,0,0,7.37-7.37v-5h102v37.47H146.39V398.27H172.3Zm140.64,25.05H296.49V385.78h16.45ZM478.18,262.52a7.37,7.37,0,0,1,0,14.74H441.25V262.52Zm-66.49-38.95a14.86,14.86,0,0,1,14.82,14.82v62.53a14.86,14.86,0,0,1-14.82,14.81H382.37V223.57ZM273.61,59.19a63.73,63.73,0,0,1,63.69,63.69,63.69,63.69,0,1,1-127.38,0A63.73,63.73,0,0,1,273.61,59.19ZM213.72,173.46a78.05,78.05,0,0,0,119.78,0h19.24a14.73,14.73,0,0,1,14.74,14.74v168A14.74,14.74,0,0,1,352.74,371h-173V173.46ZM33.82,331.56V212.87a51.92,51.92,0,0,1,51.82-51.82h79.29V383.3H85.64a51.8,51.8,0,0,1-51.82-51.74Zm81.3,66.64h16.45v25.05H115.12Zm363.06,54.61H33.82a7.37,7.37,0,1,1,0-14.74H478.18a7.37,7.37,0,0,1,0,14.74Z" transform="translate(-11.64 -44.3)"/><path class="cls-1" d="M99.37,193.47H61.21a7.37,7.37,0,1,0,0,14.74H99.37a7.37,7.37,0,1,0,0-14.74Zm0,34.45H61.21a7.37,7.37,0,1,0,0,14.74H99.37a7.37,7.37,0,1,0,0-14.74Zm157.72-98.21h21.64l-14.89,33.74a7.45,7.45,0,0,0,3.8,9.78,7,7,0,0,0,2.94.62,7.25,7.25,0,0,0,6.75-4.42l19.55-44.15a7.56,7.56,0,0,0-.54-7,7.43,7.43,0,0,0-6.21-3.34H268.8l15.36-32.35a7.39,7.39,0,0,0-13.34-6.36l-20.33,42.9a7.34,7.34,0,0,0,.47,7.14,7.09,7.09,0,0,0,6.13,3.49Z" transform="translate(-11.64 -44.3)"/></svg>