<svg id="Layer_1" data-name="Layer 1" xmlns="http://www.w3.org/2000/svg" viewBox="0 0 450.29 449.19"><defs><style>.cls-1{fill:#fff;}</style></defs><path class="cls-1" d="M458.75,217.77l-86-15v-5.46A27.39,27.39,0,0,0,345.43,170h-9.56V126.29a51.3,51.3,0,0,0,23.21-43A51.93,51.93,0,0,0,256,74.41C198,126.29,133.12,172.71,56.66,172A25.11,25.11,0,0,0,31.4,193.19c-2.73,15,8.19,30,26.63,30,41,0,79.19-10.92,113.32-27.3L243,230.74v56A27.39,27.39,0,0,0,270.34,314h9.55V428h-28a30.6,30.6,0,0,0-30.72,30.72v15A6.45,6.45,0,0,0,228,480.6H388.44a6.45,6.45,0,0,0,6.82-6.83v-15A30.59,30.59,0,0,0,364.54,428h-28V314h9.56a27.39,27.39,0,0,0,27.31-27.31v-9.56l48.47,5.46v23.21a6.45,6.45,0,0,0,6.82,6.83h45.74a6.45,6.45,0,0,0,6.83-6.83V244.39C481.28,231.42,471.72,220.5,458.75,217.77ZM307.88,45.06a38.23,38.23,0,1,1-38.23,38.23A38.16,38.16,0,0,1,307.88,45.06Zm14.34,87.38V170H292.86V132.44a53.45,53.45,0,0,0,15,2.05A52.2,52.2,0,0,0,322.22,132.44ZM56.66,209.58c-7.51,0-13.65-6.83-12.29-14.34.69-5.46,6.15-10.24,12.29-10.24,77.14.69,141.31-43,200-93.52A52.44,52.44,0,0,0,266.92,114C213.67,160.43,142,210.26,56.66,209.58Zm185.69-12.29v18.43l-56-27.3c34.13-18.44,64.85-41.65,90.79-64.17.69.68,1.37,1.36,2,1.36V169.3h-9.56c-15,.68-27.3,13-27.3,28ZM363.86,442.37a16.9,16.9,0,0,1,17.07,17.06v8.2H234.15v-8.2a16.9,16.9,0,0,1,17.07-17.06Zm-71-13.66V314h29.36V428H292.86Zm66.22-142a13.69,13.69,0,0,1-13.65,13.65H269.65A13.69,13.69,0,0,1,256,286.72V197.29a13.69,13.69,0,0,1,13.65-13.65h75.78a13.69,13.69,0,0,1,13.65,13.65Zm108.55,13H435.54V277.16c0-3.41-2.73-6.14-6.14-6.82l-56-6.15v-47.1l83.28,15c6.83,1.36,10.93,6.82,10.93,13.65Z" transform="translate(-30.99 -31.4)"/><path class="cls-1" d="M451.93,402.09a23,23,0,0,0,23.21-23.21c0-10.24-13-32.09-17.07-38.91a7,7,0,0,0-11.61,0c-4.09,6.82-17.06,28.67-17.06,38.91-.69,13,9.55,23.21,22.53,23.21Zm0-45.06c5.46,9.56,9.55,18.44,9.55,21.85a9.56,9.56,0,1,1-19.11,0C442.37,376.15,446.46,366.59,451.93,357Z" transform="translate(-30.99 -31.4)"/></svg>