<svg id="Layer_1" data-name="Layer 1" xmlns="http://www.w3.org/2000/svg" viewBox="0 0 483.57 440.81"><defs><style>.cls-1{fill:#fff;}</style></defs><path class="cls-1" d="M230.68,476.78a7.14,7.14,0,0,1-3-.68L18.12,375.28a7,7,0,0,1-3.94-6.3V143.92a7,7,0,0,1,10-6L233.55,238.22a7,7,0,0,1,3.94,6.3V469.86a7.59,7.59,0,0,1-6.81,6.92ZM28.13,364.65l195.41,94.12V248.85L28.13,154.73Z" transform="translate(-14.18 -35.97)"/><path class="cls-1" d="M230.68,251.33a6.55,6.55,0,0,1-3-.73L18.12,149.83a7,7,0,0,1,0-12.55L227.59,36.68a6.71,6.71,0,0,1,6,0L443,137.45a7,7,0,0,1,0,12.61L233.55,250.6a6.53,6.53,0,0,1-2.87.73ZM37.19,143.53l193.49,93.12,193.21-92.9L230.68,50.64Z" transform="translate(-14.18 -35.97)"/><path class="cls-1" d="M230.68,476.78a6.79,6.79,0,0,1-3.71-1.07,6.87,6.87,0,0,1-3.27-5.63V244.52a7.11,7.11,0,0,1,3.94-6.3L436.89,137.4a6.78,6.78,0,0,1,6.69.39,6.87,6.87,0,0,1,3.27,5.63V244.13a7,7,0,0,1-13.9,1.25,6.53,6.53,0,0,1,0-1.25v-89.4L237.49,248.85V458.77l114.66-55.25a7.09,7.09,0,1,1,6,12.83L233.55,476.1a7.32,7.32,0,0,1-2.87.68Z" transform="translate(-14.18 -35.97)"/><path class="cls-1" d="M166.15,339.5a6.94,6.94,0,0,1-5.63-2.82l-42.93-58.12L84.4,297.24a7,7,0,0,1-6.92,0,6.93,6.93,0,0,1-3.44-6V172.28A6.94,6.94,0,0,1,78,166l115.23-55.81a6.84,6.84,0,0,1,6,0l85.46,41.07a7,7,0,0,1,0,12.55L173.12,217.68V332.52a7,7,0,0,1-4.78,6.64,7.76,7.76,0,0,1-2.19.34Zm-46.65-77a7,7,0,0,1,5.63,2.81l34,46.08V213.35a7,7,0,0,1,4-6.3l102.46-49.51-69.48-33.37L87.88,176.67V279.29L116,263.43A6.75,6.75,0,0,1,119.5,262.53ZM274.62,405.89a7,7,0,0,1-3-13.23l39.89-19.29a7.08,7.08,0,0,1,9.34,3.26,6.92,6.92,0,0,1-3.19,9.25l-.07,0L277.66,405.1a7.3,7.3,0,0,1-3,.79Zm0-43.1a7,7,0,0,1-3-13.22l27-13.06a7,7,0,1,1,6,12.33l-27,13a6.44,6.44,0,0,1-3,1Z" transform="translate(-14.18 -35.97)"/><path class="cls-1" d="M400.26,438.13h-.45a6.66,6.66,0,0,1-2.08-.34c-115.79-36.52-93.91-170.2-93.91-171.55a7.08,7.08,0,0,1,4.34-5.29l89-35a6.07,6.07,0,0,1,2.53-.45,8.87,8.87,0,0,1,3,.45l89.07,35a7.06,7.06,0,0,1,4.33,5.29c0,1.35,22,135-93.74,171.55a7,7,0,0,1-2.08.34Zm-83.1-165.7A190.93,190.93,0,0,0,320.7,335c10.36,45,37.14,74.95,79.56,88.9,42.37-13.95,69.15-43.88,79.56-88.9a192,192,0,0,0,3.26-62.56l-83-32.58Z" transform="translate(-14.18 -35.97)"/><path class="cls-1" d="M399.87,366.5a7,7,0,0,1-5.63-2.81l-24.7-33a7,7,0,1,1,11.25-8.33l19.13,25.6,43.16-56.77a7,7,0,0,1,11.25,8.44h0l-48.78,64.15A6.81,6.81,0,0,1,399.87,366.5Z" transform="translate(-14.18 -35.97)"/></svg>