<svg id="Layer_1" data-name="Layer 1" xmlns="http://www.w3.org/2000/svg" viewBox="0 0 70 70"><defs><style>.cls-1{fill:#fff;}</style></defs><rect class="cls-1" x="34.06" y="36.84" width="1.88" height="3.56" rx="0.91"/><rect class="cls-1" x="34.06" y="29.4" width="1.88" height="3.56" rx="0.91"/><rect class="cls-1" x="46.99" y="38.11" width="1.88" height="3.56" rx="0.91" transform="translate(-12.78 25.65) rotate(-26.57)"/><rect class="cls-1" x="42.68" y="29.48" width="1.88" height="3.56" rx="0.91" transform="translate(-9.38 22.81) rotate(-26.57)"/><rect class="cls-1" x="21.12" y="38.11" width="1.88" height="3.56" rx="0.91" transform="translate(23.95 85.44) rotate(-153.43)"/><rect class="cls-1" x="25.44" y="29.48" width="1.88" height="3.56" rx="0.91" transform="translate(35.99 71.02) rotate(-153.43)"/><path class="cls-1" d="M47.34,9.94H22.77A3.46,3.46,0,0,0,19.3,13.4v5a3.46,3.46,0,0,0,3.47,3.46H47.34a3.46,3.46,0,0,0,3.46-3.46v-5A3.46,3.46,0,0,0,47.34,9.94ZM49,18.4a1.69,1.69,0,0,1-1.69,1.69H22.67A1.69,1.69,0,0,1,21,18.4v-5a1.68,1.68,0,0,1,1.69-1.69H47.33A1.68,1.68,0,0,1,49,13.41Z"/><path class="cls-1" d="M25.37,10A5.08,5.08,0,0,1,30,5V.74A.74.74,0,0,1,30.72,0h8.77a.74.74,0,0,1,.74.74V5s4.5.73,4.4,5.13H43s-.39-3.27-3.47-3.45A1,1,0,0,1,38.6,6a1.4,1.4,0,0,1,0-.37V1.88H31.65V4.81h3.28a.91.91,0,0,1,.91.91v.07a.91.91,0,0,1-.91.91H30.81a3.81,3.81,0,0,0-2.06.57A3.27,3.27,0,0,0,27.2,10Z"/><path class="cls-1" d="M22.77,21.87,21.5,24.38a2.38,2.38,0,0,0,1.68,2.93H46.93s2.51-.94,1.46-3.24l-1-2.2H45.46l1.38,2.85a.66.66,0,0,1,0,.48.4.4,0,0,1-.37.33H23.85a.62.62,0,0,1-.63-.6.53.53,0,0,1,.06-.24l1.41-2.86Z"/><path class="cls-1" d="M59.72,68.12H54.88v-3c9.42-4.6-.42-18.1-.42-18.1a.84.84,0,0,0-1.15,0c-9.63,14.86-.42,18-.42,18l.1,3.14H42.53V64.87c9-3.76.42-17.16.21-17.58s-.62-1-1.46-.62-2.09,3.55-2.09,3.55a36.11,36.11,0,0,0-3.35-6.9l0,0a1.07,1.07,0,0,0-1.64.21A32,32,0,0,0,31,50.22c-1.25-2.51-1.88-3.34-2.3-3.66a.92.92,0,0,0-.94,0c-9.63,15.07-.42,18.21-.42,18.21v3.35H17.21V64.87c9.42-4.6-.42-18.1-.42-18.1a.84.84,0,0,0-1.15,0c-9.62,14.86-.42,18-.42,18l.11,3.35H10.28a.92.92,0,0,0-.92.91v.06a.92.92,0,0,0,.92.91H59.72a.92.92,0,0,0,.92-.91V69A.92.92,0,0,0,59.72,68.12ZM53.94,49.19v0h0v0c.3.49,6.94,11.62,0,14.31h0C47,60.81,53.64,49.68,53.94,49.19ZM16.27,49v0h0v0c.3.49,6.94,11.62,0,14.31h0C9.34,60.6,16,49.47,16.27,49Zm23.46,3.6,2-3.72c7.43,14-.22,14.65-.22,14.65-2.63-.65-3.06-4.15-3.06-4.15C40.82,56.73,39.73,52.58,39.73,52.58Zm.92,12.29v3.25H35.84v-6.8a4.49,4.49,0,0,0,1-.63C37.51,63.2,40.65,64.87,40.65,64.87ZM35.11,45.42l0,0h0v0c.3.5,6.93,11.62,0,14.31h0C28.17,57,34.81,45.92,35.11,45.42Zm-6.84,3.44,2,3.72s-1.09,4.15,1.31,6.78c0,0-.44,3.5-3.06,4.15C28.49,63.51,20.84,62.86,28.27,48.86Zm1.08,16a6.75,6.75,0,0,0,3.77-4.18,10.22,10.22,0,0,0,1,.63v6.8H29.35Z"/></svg>