<svg xmlns="http://www.w3.org/2000/svg" version="1.1" xmlns:xlink="http://www.w3.org/1999/xlink" xmlns:svgjs="http://svgjs.com/svgjs" width="512" height="512" x="0" y="0" viewBox="0 0 64 64" style="enable-background:new 0 0 512 512" xml:space="preserve" class=""><g><path d="M38 13a1 1 0 0 0 1-1v-1.483c-.066-3.102 5.043-3.47 5.585-.494.252 1.154-.409 2.233-1.379 2.822A5.542 5.542 0 0 0 41 17.258c.021 1.31 1.978 1.317 2 0-.02-1.303.753-2.445 1.827-3.129a4.538 4.538 0 0 0 1.719-4.499c-1.1-5.323-9.521-4.647-9.546.887V12a1 1 0 0 0 1 1zM41.276 20.69c.9.953 2.353-.408 1.455-1.372-.9-.95-2.344.415-1.455 1.371zM4.587 49.94c1.073.735 2.216-.875 1.146-1.64A4.04 4.04 0 0 1 4 45V15c0-2.206 1.794-4 4-4h17a1 1 0 0 0 0-2H8c-3.309 0-6 2.691-6 6v30c0 1.959.967 3.806 2.587 4.94zM59.601 10.2c-1.053-.77-2.243.8-1.202 1.6A4.027 4.027 0 0 1 60 15v30c0 2.206-1.794 4-4 4H38.59a1 1 0 1 0 0 2H56c3.309 0 6-2.691 6-6V15c0-1.875-.897-3.67-2.399-4.8zM37 54c.205-1.49-1.89-1.767-2-.27.237 2.753-3.157 4.364-5.114 2.402-.666-.612-.753-1.986-1.958-1.56-1.35.666-.164 2.217.54 2.97C30.824 60.03 35.343 59.14 36.58 56c1.95-.27 3.236 1.96 1.833 3.413-.378.379-.88.587-1.413.587H27c-1.94.035-2.749-2.628-1.105-3.668 1.087-.73-.022-2.386-1.11-1.664C21.516 56.802 23.09 62.032 27 62h10a3.97 3.97 0 0 0 2.827-1.173c2.52-2.415.666-6.896-2.827-6.827zM17.687 43.073c-.951-.894-2.322.55-1.374 1.453l3.385 3.2a1 1 0 0 0 1.41-.037l7.616-8c.894-.948-.538-2.322-1.448-1.378l-6.928 7.278z" fill="#ffffff" data-original="#000000" class=""></path><path d="M33 24h7.553c.539 2.247 2.425 3.88 4.767 4.47a1.001 1.001 0 0 0 1.14-1.402c-.457-.96-.409-2.157.146-3.068H51c3.309 0 6-2.691 6-6V8c0-3.309-2.691-6-6-6H33c-3.309 0-6 2.691-6 6v10c0 3.309 2.691 6 6 6zM29 8c0-2.206 1.794-4 4-4h18c2.206 0 4 1.794 4 4v10c0 2.206-1.794 4-4 4h-4.902a1 1 0 0 0-.773.365c-.813.974-1.195 2.183-1.17 3.438-1.026-.698-1.663-1.649-1.752-2.88a1 1 0 0 0-.997-.923H33c-2.206 0-4-1.794-4-4V8zM25.32 27.028c-2.342.591-4.228 2.223-4.767 4.47H13c-3.309 0-6 2.691-6 6v10c0 3.309 2.691 6 6 6h18c3.309 0 6-2.691 6-6v-10c0-3.309-2.691-6-6-6h-4.394c-.554-.91-.604-2.107-.146-3.067.375-.726-.351-1.624-1.14-1.403zm5.68 6.47c2.206 0 4 1.795 4 4v10c0 2.206-1.794 4-4 4H13c-2.206 0-4-1.794-4-4v-10c0-2.205 1.794-4 4-4h8.406a1 1 0 0 0 .997-.922c.089-1.231.727-2.182 1.753-2.88-.026 1.254.356 2.464 1.17 3.438.19.23.473.364.772.364H31zM23 16c1.311-.021 1.317-1.978 0-2H10c-1.31.021-1.317 1.977 0 2zM10 20h13c1.311-.021 1.317-1.978 0-2H10c-1.31.021-1.317 1.977 0 2zM23 22h-8c-1.312.022-1.316 1.978 0 2h8c1.312-.022 1.316-1.978 0-2zM54 37c1.31-.02 1.318-1.978 0-2H41c-1.311.021-1.317 1.978 0 2h13zM55 40a1 1 0 0 0-1-1H41a1 1 0 1 0 0 2h13a1 1 0 0 0 1-1zM41 43c-1.312.021-1.316 1.978 0 2h8a1 1 0 1 0 0-2z" fill="#ffffff" data-original="#000000" class=""></path></g></svg>