<svg id="Layer_1" data-name="Layer 1" xmlns="http://www.w3.org/2000/svg" xmlns:xlink="http://www.w3.org/1999/xlink" viewBox="0 0 308.57 1008.48"><defs><style>.cls-1{fill:#a8a7a7;}.cls-2{fill:#888;}.cls-3{fill:#737272;}.cls-4{fill:#2989c4;}.cls-5{fill:#4bbdc3;}.cls-6{fill:#29a093;}.cls-7{fill:url(#linear-gradient);}.cls-8{fill:#fff;}.cls-9{fill:#30bec1;}.cls-10{fill:#236c9e;}.cls-11{fill:#317397;}.cls-12{fill:#239889;}.cls-13{fill:#36989c;}.cls-14{fill:#43bdbe;}.cls-15{fill:url(#linear-gradient-2);}.cls-16{fill:url(#linear-gradient-3);}.cls-17{fill:url(#linear-gradient-4);}.cls-18{fill:url(#linear-gradient-5);}.cls-19{fill:url(#linear-gradient-6);}.cls-20{fill:url(#linear-gradient-7);}.cls-21{fill:url(#linear-gradient-8);}.cls-22{fill:url(#linear-gradient-9);}.cls-23{fill:url(#linear-gradient-10);}.cls-24{fill:url(#linear-gradient-11);}</style><linearGradient id="linear-gradient" x1="385.98" y1="948.11" x2="386.24" y2="860.45" gradientTransform="matrix(1, 0, 0, -1, 0, 1010)" gradientUnits="userSpaceOnUse"><stop offset="0" stop-color="#1aa492"/><stop offset="1" stop-color="#107271"/></linearGradient><linearGradient id="linear-gradient-2" x1="296.05" y1="87.96" x2="303.94" y2="87.96" gradientTransform="matrix(1, 0, 0, 1, 0, 0)" xlink:href="#linear-gradient"/><linearGradient id="linear-gradient-3" x1="304.79" y1="88.04" x2="313.23" y2="88.04" gradientTransform="matrix(1, 0, 0, 1, 0, 0)" xlink:href="#linear-gradient"/><linearGradient id="linear-gradient-4" x1="313.86" y1="87.83" x2="321.75" y2="87.83" gradientTransform="matrix(1, 0, 0, 1, 0, 0)" xlink:href="#linear-gradient"/><linearGradient id="linear-gradient-5" x1="323.22" y1="88.01" x2="331.11" y2="88.01" gradientTransform="matrix(1, 0, 0, 1, 0, 0)" xlink:href="#linear-gradient"/><linearGradient id="linear-gradient-6" x1="295.58" y1="290.28" x2="303.48" y2="290.28" gradientTransform="matrix(1, 0, 0, 1, 0, 0)" xlink:href="#linear-gradient"/><linearGradient id="linear-gradient-7" x1="304.33" y1="290.37" x2="312.77" y2="290.37" gradientTransform="matrix(1, 0, 0, 1, 0, 0)" xlink:href="#linear-gradient"/><linearGradient id="linear-gradient-8" x1="322.41" y1="290.37" x2="330.85" y2="290.37" gradientTransform="matrix(1, 0, 0, 1, 0, 0)" xlink:href="#linear-gradient"/><linearGradient id="linear-gradient-9" x1="313.39" y1="290.16" x2="321.29" y2="290.16" gradientTransform="matrix(1, 0, 0, 1, 0, 0)" xlink:href="#linear-gradient"/><linearGradient id="linear-gradient-10" x1="219.88" y1="392.61" x2="227.78" y2="392.61" gradientTransform="matrix(1, 0, 0, 1, 0, 0)" xlink:href="#linear-gradient"/><linearGradient id="linear-gradient-11" x1="228.63" y1="392.7" x2="237.07" y2="392.7" gradientTransform="matrix(1, 0, 0, 1, 0, 0)" xlink:href="#linear-gradient"/></defs><path class="cls-1" d="M143,0V23c0,9.91,6.44,16.54,16.32,17h1c30.45.28,60.88,1.44,91.34,1,15.43-.22,27.94,8.36,32.52,22.86,2.5,7.92,2,16.41,1.77,24.71,0,1.8-.71,2.46-2.48,1.4-5.21-3.1-10.58-2.53-15.72-.09-2.87,1.36-2.73-.19-2.76-2,0-3.16-.38-6.38.05-9.48,1.28-9.15-7.67-17.55-17.44-17.47-29.32.23-58.64.14-88,.08-18.23,0-34-14.2-36.79-32.6C121.41,18.93,122.4,9.49,122,0Z" transform="translate(-121.95)"/><path class="cls-1" d="M264.12,522.82c6.65,3.9,12.54,3.72,18.56,1.25,1.6-.65,3.53-1.57,3.5,1.82-.1,10.92.4,21.65-5.67,31.78-7.35,12.26-18,18.11-31.65,19-7.46.5-15,.08-22.46.11-10.39,0-17.12,6.54-17.12,17.08,0,4.26-.7,5.21-4.9,3.21-5.65-2.68-11.28-1.63-17,2.83-.17-11.7,1.41-21.93,8.77-30.66,8.65-10.25,19.86-14.5,33-14.47h19.47c9.4-.07,15.45-6.2,15.52-15.68C264.12,534,264.12,528.83,264.12,522.82Z" transform="translate(-121.95)"/><path class="cls-1" d="M237.19,348.89c4.16,0,8.32.09,12.48,0A14.88,14.88,0,0,0,264,334.53c.13-4,0-8,0-12,0-2,.58-2.77,2.68-1.52,5,2.93,10.13,2.7,15.23.4,3.23-1.45,4.08-.7,4.18,2.91.34,11.87-.77,23.19-9.14,32.58-8,9-17.93,13.93-30.09,14h-21c-10,0-16.48,6.41-16.84,16.4v1c-.08,7.07-.09,7.09-7,5.11a14.61,14.61,0,0,0-10.93,1.29c-2.73,1.37-4,.9-4.06-2.7-.51-24.59,16.2-43.24,41.67-43.13C231.53,348.89,234.36,348.89,237.19,348.89Z" transform="translate(-121.95)"/><path class="cls-1" d="M286,497.14c-6.18-2.41-11.94-4.65-18.44-1.75-3.73,1.66-3.58-1.71-3.39-4,.64-7.4-3.07-12.21-8.93-16-2.25-1.44-4.63-1.54-7.15-1.65-10.91-.46-21.91,1.3-32.73-1.7-9.22-2.55-16.12-8-21.46-15.75-6.52-9.42-7.21-20.09-6.74-31,.1-2.08.24-3.39,3.24-2.14,5.15,2.14,10.58,2.87,15.79-.34,2.1-1.3,3-.51,3,1.86v11c.05,9.58,6.62,16,16.19,16.17,11.25.26,22.57-1.18,33.71,1.88,11.65,3.21,24.47,17.59,26.17,29.42A65,65,0,0,1,286,497.14Z" transform="translate(-121.95)"/><path class="cls-1" d="M286.52,116.57c2.84,20.31-5.52,36.91-22.69,44.89a35.18,35.18,0,0,1-14.89,3.43H227.48c-10.93,0-17.38,6.43-17.41,17.23v1.5c0,7.58,0,7.54-7.28,5.7a13.71,13.71,0,0,0-9.23.72c-5.45,2.42-5.33,2.29-5.55-3.83-.54-15.18,4.85-27.39,17.44-36.25a38,38,0,0,1,21.35-7c7.49-.19,15,0,22.46-.06,9.43,0,15.65-6.2,15.74-15.52v-3c0-6.25-.06-5.93,5.93-4.79C276.35,120.66,281.77,120.09,286.52,116.57Z" transform="translate(-121.95)"/><path class="cls-1" d="M286.06,295c-6.38-3.77-12.48-6.25-19.27-2.06-1.87,1.16-2.75.39-2.74-1.7s0-4.33,0-6.49c-.07-10.25-6.63-16.66-16.78-16.91-9.44-.23-18.88.67-28.34-.82-16.32-2.56-29.51-17.52-31-32.52a121.63,121.63,0,0,1-.88-12.36c0-2.39.56-3.68,3.12-2.18,5.25,3.07,10.53,2.48,15.72,0,2.54-1.22,3.28-.42,3.21,2.12s.1,5.33,0,8c-.37,7.15,7,17,16.09,16,6.9-.78,14-.16,21-.15a39.87,39.87,0,0,1,28.38,11.68A39.79,39.79,0,0,1,286.19,286Z" transform="translate(-121.95)"/><path class="cls-2" d="M282.28,307.77a1.4,1.4,0,0,1,0-.81l59.63.12a2.17,2.17,0,0,1,0,.51Z" transform="translate(-121.95)"/><path class="cls-3" d="M283.23,509.89a4.76,4.76,0,0,0,.91-.27h57l1.9.33a2.12,2.12,0,0,1,0,.71l-1.86.31h-58v-.29A1.63,1.63,0,0,1,283.23,509.89Z" transform="translate(-121.95)"/><path class="cls-3" d="M283,104.81a4.7,4.7,0,0,1,0-.75h58.91a1.61,1.61,0,0,1,0,.69Z" transform="translate(-121.95)"/><path class="cls-4" d="M276.12,517.89a8,8,0,1,0-8-8A8,8,0,0,0,276.12,517.89Z" transform="translate(-121.95)"/><path class="cls-5" d="M275.12,314.89a8,8,0,1,0-8-8A8,8,0,0,0,275.12,314.89Z" transform="translate(-121.95)"/><path class="cls-6" d="M276.12,112.89a8,8,0,1,0-8-8A8,8,0,0,0,276.12,112.89Z" transform="translate(-121.95)"/><path class="cls-7" d="M386.11,149.55a43.83,43.83,0,1,0-43.83-43.83A43.83,43.83,0,0,0,386.11,149.55Z" transform="translate(-121.95)"/><path class="cls-8" d="M386.11,140.16a34.44,34.44,0,1,0-34.44-34.44A34.44,34.44,0,0,0,386.11,140.16Z" transform="translate(-121.95)"/><path class="cls-9" d="M386.64,349.67a43.83,43.83,0,1,0-43.83-43.83A43.83,43.83,0,0,0,386.64,349.67Z" transform="translate(-121.95)"/><path class="cls-8" d="M386.64,340.28a34.44,34.44,0,1,0-34.44-34.44A34.44,34.44,0,0,0,386.64,340.28Z" transform="translate(-121.95)"/><path class="cls-10" d="M386.64,546.89a43.83,43.83,0,1,0-43.83-43.83A43.83,43.83,0,0,0,386.64,546.89Z" transform="translate(-121.95)"/><path class="cls-8" d="M386.64,537.5a34.44,34.44,0,1,0-34.44-34.44A34.44,34.44,0,0,0,386.64,537.5Z" transform="translate(-121.95)"/><path d="M384.44,125.89a4.41,4.41,0,0,1-1.84-.87,3.71,3.71,0,0,1-1-1.41,3.6,3.6,0,0,1-.25-1.72.49.49,0,0,0,0-.24.6.6,0,0,0-.09-.22.69.69,0,0,0-.18-.16.53.53,0,0,0-.22-.08c-.69-.23-1.34-.54-2-.82a11.75,11.75,0,0,1-1,.87,3.58,3.58,0,0,1-4.61-.14,27,27,0,0,1-2.14-2.14,3.62,3.62,0,0,1,.1-4.91c.21-.2.42-.39.65-.57-.34-.86-.64-1.63-1-2.39a.5.5,0,0,0-.15-.14.66.66,0,0,0-.2-.06,6.1,6.1,0,0,1-1.35-.1,3.62,3.62,0,0,1-2.86-3.55v-2.56a3.55,3.55,0,0,1,3.49-3.58c.79,0,1.19-.21,1.36-1a5.41,5.41,0,0,1,.56-1.28.31.31,0,0,0,.06-.13.29.29,0,0,0,0-.13.29.29,0,0,0-.05-.13.47.47,0,0,0-.1-.1,3.94,3.94,0,0,1-1.36-2.16,3.49,3.49,0,0,1,0-1.73,3.54,3.54,0,0,1,.83-1.52c.66-.72,1.35-1.41,2.06-2.06a3.62,3.62,0,0,1,2.52-1,3.66,3.66,0,0,1,2.48,1c.21.21.41.52.66.57s.5-.22.77-.32c.47-.2,1-.39,1.44-.56a.39.39,0,0,0,.2-.13.38.38,0,0,0,.06-.23,7.59,7.59,0,0,1,.1-1.43,3.6,3.6,0,0,1,1.25-2,3.65,3.65,0,0,1,2.22-.8h2.64A3.57,3.57,0,0,1,391,89.53c0,.79.19,1.24,1,1.37a3.8,3.8,0,0,1,.78.33l.83.39a7.65,7.65,0,0,1,.65-.74,3.59,3.59,0,0,1,4.79-.11A23.26,23.26,0,0,1,401.31,93a3.66,3.66,0,0,1,.89,2.44,3.6,3.6,0,0,1-1,2.41,6.56,6.56,0,0,1-.67.62c.34.85.63,1.62,1,2.38a.5.5,0,0,0,.15.14.46.46,0,0,0,.2,0,11.85,11.85,0,0,1,1.68.2,3.51,3.51,0,0,1,1.58,1,3.46,3.46,0,0,1,.86,1.65l.09.29v3.58L406,108a3.6,3.6,0,0,1-.91,1.71,3.67,3.67,0,0,1-1.68,1,9.91,9.91,0,0,1-1.53.15.66.66,0,0,0-.2.06.5.5,0,0,0-.15.14c-.33.76-.62,1.53-1,2.37.23.2.46.4.67.62a3.6,3.6,0,0,1,1,2.41,3.66,3.66,0,0,1-.89,2.44,24.57,24.57,0,0,1-2.16,2.17,3.62,3.62,0,0,1-4.94-.13c-.21-.2-.39-.44-.56-.63-.7.29-1.31.56-1.94.8s-.64.24-.63.91a3.56,3.56,0,0,1-1.64,3.19,8.42,8.42,0,0,1-1.49.63ZM403.79,106v-1.2a1.23,1.23,0,0,0-.09-.54,1.29,1.29,0,0,0-.31-.46,1.19,1.19,0,0,0-.46-.3,1.23,1.23,0,0,0-.54-.09h-1.55a1.22,1.22,0,0,1-.81-.23,1.19,1.19,0,0,1-.44-.72,15.25,15.25,0,0,0-1.42-3.42,1.17,1.17,0,0,1-.21-.83,1.22,1.22,0,0,1,.43-.75c.36-.37.74-.73,1.09-1.11a1.43,1.43,0,0,0,.32-.44,1.31,1.31,0,0,0,0-1,1.43,1.43,0,0,0-.32-.44q-.84-.87-1.71-1.71a1.28,1.28,0,0,0-.44-.32,1.31,1.31,0,0,0-1.05,0,1.28,1.28,0,0,0-.44.32c-.38.37-.75.76-1.13,1.12a1.15,1.15,0,0,1-1.52.22,15.33,15.33,0,0,0-3.5-1.46,1.15,1.15,0,0,1-.9-1.2V89.77a1.1,1.1,0,0,0-.09-.51,1.18,1.18,0,0,0-.28-.44,1.28,1.28,0,0,0-.43-.3,1.49,1.49,0,0,0-.51-.1H385a1.26,1.26,0,0,0-.51.11,1.42,1.42,0,0,0-.43.29,1.37,1.37,0,0,0-.28.44,1.17,1.17,0,0,0-.09.52v1.56a1.15,1.15,0,0,1-.23.82,1.17,1.17,0,0,1-.72.46A15.14,15.14,0,0,0,379.27,94a1.13,1.13,0,0,1-.81.2,1.14,1.14,0,0,1-.74-.4l-1.13-1.13a1.28,1.28,0,0,0-.44-.32,1.31,1.31,0,0,0-1,0,1.28,1.28,0,0,0-.44.32q-.86.83-1.68,1.68a1.19,1.19,0,0,0-.35.45,1.32,1.32,0,0,0,0,1.1,1.19,1.19,0,0,0,.35.45c.38.39.78.76,1.15,1.16a1.11,1.11,0,0,1,.19,1.46,15.56,15.56,0,0,0-1.46,3.53,1.14,1.14,0,0,1-.44.67,1.12,1.12,0,0,1-.77.23H370a1.08,1.08,0,0,0-.5.09,1.25,1.25,0,0,0-.44.27,1.37,1.37,0,0,0-.29.42,1.25,1.25,0,0,0-.11.5v2.57a1.26,1.26,0,0,0,.11.51,1.15,1.15,0,0,0,.3.42,1.18,1.18,0,0,0,.45.28,1.27,1.27,0,0,0,.51.08h1.59a1.14,1.14,0,0,1,.79.24,1.17,1.17,0,0,1,.43.69A15,15,0,0,0,374.3,113a1.25,1.25,0,0,1,.2.82,1.2,1.2,0,0,1-.41.73L373,115.65a1.31,1.31,0,0,0-.31.43,1.31,1.31,0,0,0,0,1,1.31,1.31,0,0,0,.31.43c.57.59,1.15,1.16,1.74,1.73a1.31,1.31,0,0,0,.43.31,1.35,1.35,0,0,0,.52.11,1.28,1.28,0,0,0,1-.42c.39-.37.75-.76,1.13-1.13a1.17,1.17,0,0,1,.73-.41,1.14,1.14,0,0,1,.82.2,15,15,0,0,0,3.47,1.43,1.16,1.16,0,0,1,.92,1.23v1.55a1.47,1.47,0,0,0,.08.55,1.38,1.38,0,0,0,.29.46,1.36,1.36,0,0,0,1,.41h2.41a1.39,1.39,0,0,0,.53-.1,1.37,1.37,0,0,0,.45-.3,1.24,1.24,0,0,0,.29-.46,1.21,1.21,0,0,0,.09-.53v-1.55a1.16,1.16,0,0,1,.22-.81,1.2,1.2,0,0,1,.71-.45,15,15,0,0,0,3.46-1.44,1.13,1.13,0,0,1,.8-.19,1.17,1.17,0,0,1,.72.39c.39.37.75.76,1.13,1.13a1.49,1.49,0,0,0,.45.34,1.43,1.43,0,0,0,1.1,0,1.37,1.37,0,0,0,.45-.34c.56-.55,1.12-1.11,1.67-1.68a1.43,1.43,0,0,0,.32-.44,1.31,1.31,0,0,0,0-1.05,1.43,1.43,0,0,0-.32-.44c-.38-.4-.77-.77-1.15-1.16a1.13,1.13,0,0,1-.38-.71,1.19,1.19,0,0,1,.18-.78,15.33,15.33,0,0,0,1.46-3.5,1.16,1.16,0,0,1,1.23-.92h1.59a1.14,1.14,0,0,0,.52-.09,1.34,1.34,0,0,0,.45-.29,1.23,1.23,0,0,0,.3-.44,1.3,1.3,0,0,0,.1-.52C403.8,106.82,403.79,106.42,403.79,106Z" transform="translate(-121.95)"/><path d="M394.89,106a8.67,8.67,0,1,1-16.68-3.33A8.67,8.67,0,0,1,394.89,106Zm-8.67-6.32a6.35,6.35,0,0,0-3.51,1.06,6.41,6.41,0,0,0-2.32,2.83,6.33,6.33,0,0,0-.36,3.65,6.24,6.24,0,0,0,1.73,3.23,6.28,6.28,0,0,0,6.87,1.37,6.32,6.32,0,0,0,3.9-5.82,6.1,6.1,0,0,0-.47-2.42,6.3,6.3,0,0,0-3.42-3.43A6.47,6.47,0,0,0,386.22,99.68Z" transform="translate(-121.95)"/><path class="cls-3" d="M264.78,205.16a3.31,3.31,0,0,1,0,.63H203.89a2.42,2.42,0,0,1,0-.76Z" transform="translate(-121.95)"/><path class="cls-4" d="M205.78,205.89a8,8,0,1,0-8,8A8,8,0,0,0,205.78,205.89Z" transform="translate(-121.95)"/><path class="cls-11" d="M351.51,206.22a43.83,43.83,0,1,0-43.83,43.83A43.83,43.83,0,0,0,351.51,206.22Z" transform="translate(-121.95)"/><path class="cls-8" d="M303,240.34a34.44,34.44,0,1,0-29.45-38.79A34.43,34.43,0,0,0,303,240.34Z" transform="translate(-121.95)"/><path d="M316.94,199.33a15.56,15.56,0,1,1-3.55-3.56l-1.14,1.12a14,14,0,0,0-14.48-.86,14,14,0,1,0,14.48,24,13.59,13.59,0,0,0,5.6-8,13.79,13.79,0,0,0,.25-6,14,14,0,0,0-2.29-5.51l1.13-1.15Z" transform="translate(-121.95)"/><path d="M314.91,208.68a10.67,10.67,0,1,1-18-7.93,10.53,10.53,0,0,1,12.91-1.35l-1.14,1.16a9.09,9.09,0,0,0-9,.12,9.13,9.13,0,0,0-3.28,3.31,9.09,9.09,0,0,0,7.68,13.61,9,9,0,0,0,7.26-3.37,9.08,9.08,0,0,0,.9-10.09l1.16-1.17A10.63,10.63,0,0,1,314.91,208.68Z" transform="translate(-121.95)"/><path d="M322,190.85h3.61a.9.9,0,0,1,.53.14.92.92,0,0,1,.36.42,1,1,0,0,1,.05.55.92.92,0,0,1-.28.47l-4.2,4.2a1.86,1.86,0,0,1-.6.4,2,2,0,0,1-.72.13h-3.56a.7.7,0,0,0-.32.05.74.74,0,0,0-.27.19q-4.66,4.68-9.34,9.34c-.81.81-1.61,1.62-2.42,2.42a.78.78,0,0,1-1,.15.74.74,0,0,1-.36-.38.69.69,0,0,1,0-.51,1.54,1.54,0,0,1,.4-.61l11.63-11.65a.62.62,0,0,0,.18-.43v-3.62a1.83,1.83,0,0,1,.14-.73,1.69,1.69,0,0,1,.41-.61l4.17-4.17a.87.87,0,0,1,.46-.29.93.93,0,0,1,1,.39.93.93,0,0,1,.14.54v3.61Zm-1.86-1.69-2.59,2.57a.87.87,0,0,0-.16.23.63.63,0,0,0,0,.27v3c0,.21.05.29.28.29h3a.51.51,0,0,0,.31-.11l2.84-2.83v-.09h-3.43v-3.52C320.23,189.05,320.15,189.1,320.13,189.16Z" transform="translate(-121.95)"/><path d="M305.4,203.87a1.39,1.39,0,0,1-.54.42,1.42,1.42,0,0,1-.68.11,4.08,4.08,0,0,0-2.31.75,4.2,4.2,0,0,0-1.5,1.93,4.15,4.15,0,0,0-.14,2.44,4.25,4.25,0,0,0,1.25,2.09,4.21,4.21,0,0,0,2.22,1,4.12,4.12,0,0,0,4.16-2.09,4.07,4.07,0,0,0,.5-2.39.42.42,0,0,1,.05-.27c.37-.42.83-.83,1.26-1.26a5.65,5.65,0,0,1-2,6.56,5.77,5.77,0,0,1-8.16-7.91,5.7,5.7,0,0,1,6.7-2.16C305.91,203.37,305.63,203.61,305.4,203.87Z" transform="translate(-121.95)"/><path class="cls-8" d="M409.12,328.05v.7h-45v-45h39.1a1,1,0,0,0-.61,1.05.5.5,0,0,1-.41.58,3,3,0,0,0-2.09,2.8,2.68,2.68,0,0,0,.3,1.57,2.62,2.62,0,0,0,1.15,1.11,5.12,5.12,0,0,0,.73.39.45.45,0,0,1,.27.2.48.48,0,0,1,.05.33v3.84c-.51-.22-.91-.42-1.32-.58a1.87,1.87,0,0,0-.77-.2.81.81,0,0,0-.71.68.84.84,0,0,0,.05.52.94.94,0,0,0,.34.4,5.06,5.06,0,0,0,2.41.87v.47c0,.66.31,1,.86,1s.88-.38.88-1.06v-.54a3.75,3.75,0,0,0,1.94-1.25,3.7,3.7,0,0,0,.84-2.14c.15-2-1-3.06-2.76-3.61v-3.13l.66.35a.92.92,0,0,0,.32.14,1,1,0,0,0,.35,0,.83.83,0,0,0,.32-.14.78.78,0,0,0,.24-.24,1,1,0,0,0,.15-.33.92.92,0,0,0,0-.37.81.81,0,0,0-.16-.32.7.7,0,0,0-.28-.23,6.57,6.57,0,0,0-1.26-.59c-.27-.09-.39-.19-.36-.47a1,1,0,0,0-.1-.68,1,1,0,0,0-.51-.46h5.39v43.73a1,1,0,0,0-1.23-.59V301.7c0-.79-.29-1.08-1.08-1.08h-6.53c-.88,0-1.15.27-1.15,1.14v25.13h-2.46V306.42c0-.77-.3-1.07-1-1.07h-6.55c-.92,0-1.18.26-1.18,1.16v20.38h-2.46V311.53c0-.82-.28-1.11-1.1-1.11h-6.56c-.86,0-1.13.28-1.13,1.13v15.34h-2.46v-8.7c0-.8-.29-1.09-1.07-1.09h-6.62c-.78,0-1.07.29-1.07,1.09v8.7h-.35a1.06,1.06,0,0,0-.35.09.89.89,0,0,0-.28.23.76.76,0,0,0-.17.32.88.88,0,0,0,0,.36c.08.48.44.72,1.09.72H408a1.09,1.09,0,0,0,.64-.11A1.17,1.17,0,0,0,409.12,328.05ZM384.81,295.7,382.12,293a.84.84,0,0,0-.33-.29.88.88,0,0,0-.85,0,.84.84,0,0,0-.33.29l-13.26,13.26a1,1,0,0,0-.28.32.9.9,0,0,0-.1.42.89.89,0,0,0,.38.74l2.45,2.45c.64.64,1,.64,1.66,0l9.55-9.54.36-.35,2.62,2.62c.72.72,1.08.72,1.79,0l9-9,.39-.36.64.7a.85.85,0,0,0,.47.26.88.88,0,0,0,.53-.07.79.79,0,0,0,.39-.33.8.8,0,0,0,.13-.5v-5.35a.94.94,0,0,0,0-.37.72.72,0,0,0-.2-.31.79.79,0,0,0-.31-.2.78.78,0,0,0-.37-.05h-5.35a1,1,0,0,0-.52.13.94.94,0,0,0-.34.42.88.88,0,0,0-.05.53.91.91,0,0,0,.28.46c.23.22.48.41.71.6Z" transform="translate(-121.95)"/><path d="M403,319.71a.87.87,0,0,1-.38.4.91.91,0,0,1-.54.11H366.62c-.54,0-.84-.21-.91-.6a.81.81,0,0,1,0-.31.59.59,0,0,1,.14-.27.63.63,0,0,1,.23-.2.79.79,0,0,1,.3-.08h.34v-7.25c0-.66.24-.91.89-.91h5.5c.65,0,.89.25.89.91v7.23h2V306c0-.7.23-.93.94-.93h5.42c.69,0,.92.24.92.92v12.76h2V301.81c0-.75.22-1,1-1h5.43c.62,0,.87.26.87.89v17h2.05V297.89c0-.73.22-1,.95-1h5.53c.66,0,.9.24.9.9v21a.88.88,0,0,1,1,.5Zm-6.82-21.33v20.35h4.33V298.38Zm-5,20.36V302.33h-4.33v16.41Zm-9.32-12.19h-4.33v12.19h4.33Zm-9.33,12.2v-6.66H368.2v6.66Z" transform="translate(-121.95)"/><path d="M398.56,282.89a.84.84,0,0,1,.44.41.86.86,0,0,1,.06.59c0,.24.08.32.3.4a5.15,5.15,0,0,1,1,.49.79.79,0,0,1,.22.19.77.77,0,0,1,.12.26.66.66,0,0,1,0,.28.63.63,0,0,1-.1.27.69.69,0,0,1-.46.3.73.73,0,0,1-.54-.1l-.54-.29v2.6c1.45.46,2.41,1.36,2.29,3a3.09,3.09,0,0,1-.7,1.79,3.15,3.15,0,0,1-1.62,1v.45c0,.57-.26.88-.73.88s-.72-.32-.72-.86v-.39a4.22,4.22,0,0,1-2-.73.69.69,0,0,1-.28-.33.71.71,0,0,1,0-.43.67.67,0,0,1,.58-.57,1.61,1.61,0,0,1,.65.17l1.09.48v-3.19a.5.5,0,0,0,0-.27.41.41,0,0,0-.22-.17,5.07,5.07,0,0,1-.61-.32,2.14,2.14,0,0,1-.95-.93,2.16,2.16,0,0,1-.25-1.3,2.52,2.52,0,0,1,1.74-2.33c.26-.1.37-.2.33-.48a.82.82,0,0,1,.54-.9Zm.53,7v2.63a1.54,1.54,0,0,0,.62-.62,1.59,1.59,0,0,0,.22-.85,1.22,1.22,0,0,0-.22-.71,1.15,1.15,0,0,0-.59-.45Zm-1.49-4.09a1.08,1.08,0,0,0-.44.38,1,1,0,0,0-.15.57.75.75,0,0,0,.13.54.71.71,0,0,0,.46.29Z" transform="translate(-121.95)"/><path d="M382.8,292.83l5.22-5.22c-.19-.15-.4-.31-.59-.49a.71.71,0,0,1-.23-.38.69.69,0,0,1,0-.45.74.74,0,0,1,.29-.34.73.73,0,0,1,.43-.11h4.45a.75.75,0,0,1,.3,0,.78.78,0,0,1,.26.17.66.66,0,0,1,.16.26.67.67,0,0,1,0,.31v4.44a.73.73,0,0,1-.11.43.75.75,0,0,1-.78.32.7.7,0,0,1-.38-.22c-.18-.18-.35-.37-.54-.58l-.32.3-7.47,7.47c-.59.59-.89.59-1.49,0l-2.17-2.18-.3.29-7.94,7.93c-.53.53-.85.53-1.38,0l-2-2a.74.74,0,0,1,0-1.23q5.5-5.52,11-11a.81.81,0,0,1,.27-.25.85.85,0,0,1,.35-.08.86.86,0,0,1,.36.08.81.81,0,0,1,.27.25C381.29,291.3,382,292.06,382.8,292.83Zm-11.74,10.6a3.92,3.92,0,0,1,.25-.32l7.9-7.9c.52-.52.86-.52,1.38,0l2,2,.28.26a2.11,2.11,0,0,1,.19-.23l7.51-7.52c.33-.33.65-.57,1.13-.4v-2h-2a.92.92,0,0,1,.05.49.89.89,0,0,1-.23.44l-6.13,6.12a1,1,0,0,1-.25.2.74.74,0,0,1-.63,0,1,1,0,0,1-.25-.2c-.63-.62-1.25-1.25-1.87-1.88a3.64,3.64,0,0,1-.4-.48L369.81,302.2Z" transform="translate(-121.95)"/><path class="cls-8" d="M399.12,289.89a1.18,1.18,0,0,1,.61.44,1.23,1.23,0,0,1,.23.72,1.59,1.59,0,0,1-.22.85,1.54,1.54,0,0,1-.62.62Z" transform="translate(-121.95)"/><path class="cls-8" d="M397.6,285.8v1.78a.71.71,0,0,1-.46-.29.75.75,0,0,1-.13-.54,1,1,0,0,1,.15-.57A1.08,1.08,0,0,1,397.6,285.8Z" transform="translate(-121.95)"/><path class="cls-3" d="M266.81,408.94a1.55,1.55,0,0,1,0,.8H207a2.68,2.68,0,0,1,0-.8Z" transform="translate(-121.95)"/><path class="cls-6" d="M207,408.89a8,8,0,1,0-8,8A8,8,0,0,0,207,408.89Z" transform="translate(-121.95)"/><path class="cls-12" d="M353.72,407.64a43.83,43.83,0,1,0-43.83,43.83A43.83,43.83,0,0,0,353.72,407.64Z" transform="translate(-121.95)"/><path class="cls-8" d="M344.33,407.64a34.44,34.44,0,1,0-34.44,34.44A34.44,34.44,0,0,0,344.33,407.64Z" transform="translate(-121.95)"/><path d="M293.46,427.2a10.45,10.45,0,0,1-1.58-.68,3.51,3.51,0,0,1-1-1,3.46,3.46,0,0,1-.53-1.34c0-.07-.07-.13-.07-.2v-1.05a5.52,5.52,0,0,1,1.79-2.84c2.84-2.8,5.65-5.63,8.47-8.46l.24-.23a.63.63,0,0,1,.26-.2.77.77,0,0,1,.64,0,.63.63,0,0,1,.26.2,4.17,4.17,0,0,1,.36.47L304,410.1a13.53,13.53,0,1,1,3.28,3.31l-1.7,1.68.16.17c.71.7.71,1,0,1.7-2.81,2.81-5.63,5.61-8.43,8.44a5.54,5.54,0,0,1-2.84,1.8Zm13.43-16.15a12,12,0,1,0,3.27-19.67,12,12,0,0,0-3.27,19.67Zm-8.78,5.12-.12.12-5.44,5.44a2.24,2.24,0,0,0-.73,1.49,2.26,2.26,0,0,0,.49,1.58,2.29,2.29,0,0,0,1.44.81,2.25,2.25,0,0,0,1.61-.4l.2-.17,5.7-5.72Zm1.17-1.13,3.1,3.1,2-2-3.12-3.09Zm6.71-2.61-1-1L303.47,413l1,1Z" transform="translate(-121.95)"/><path d="M307.67,409.75a10.46,10.46,0,1,1,7.4,3.08A10.46,10.46,0,0,1,307.67,409.75Zm7.42-16.36a9.07,9.07,0,0,0-3.45.68,9,9,0,0,0-5.57,8.32,9,9,0,1,0,9-9Z" transform="translate(-121.95)"/><path d="M386.66,480.72a1.51,1.51,0,0,1,.74.65,1.46,1.46,0,0,1,.18,1v4.51a1.12,1.12,0,0,1-.06.51,1.27,1.27,0,0,1-.67.74,1.44,1.44,0,0,1-.5.1,1.35,1.35,0,0,1-.5-.1,1.25,1.25,0,0,1-.42-.3,1.31,1.31,0,0,1-.26-.44,1.28,1.28,0,0,1-.06-.51v-4.51a1.47,1.47,0,0,1,.19-1,1.49,1.49,0,0,1,.73-.65Z" transform="translate(-121.95)"/><path d="M365.29,501.44a1.49,1.49,0,0,1,.65-.73,1.46,1.46,0,0,1,1-.18h4.51a1.31,1.31,0,0,1,.52,0,1.4,1.4,0,0,1,.46.26,1.43,1.43,0,0,1,.31.42,1.24,1.24,0,0,1,0,1,1.43,1.43,0,0,1-.31.42,1.4,1.4,0,0,1-.46.26,1.31,1.31,0,0,1-.52,0H366.9a1.47,1.47,0,0,1-1-.19,1.49,1.49,0,0,1-.65-.73Z" transform="translate(-121.95)"/><path d="M386.27,522.89a15.24,15.24,0,0,1-2.23-.26,3.58,3.58,0,0,1-2.63-3.42v-.7a2.88,2.88,0,0,0-.05-1.24,2.72,2.72,0,0,0-.56-1.11,2.86,2.86,0,0,1-.62-2.11,6.57,6.57,0,0,0-.45-2.48,6.63,6.63,0,0,0-1.38-2.12,11,11,0,0,1-.89-14.37,10.41,10.41,0,0,1,3.07-2.84,10.58,10.58,0,0,1,3.93-1.4,10.88,10.88,0,0,1,9.62,3,10.58,10.58,0,0,1,3.17,6,11,11,0,0,1-2.25,8.87c-.38.48-.84.91-1.22,1.39A6.18,6.18,0,0,0,392.5,514a4,4,0,0,1-1.08,2.84.66.66,0,0,0-.15.43v1.89a3.63,3.63,0,0,1-.28,1.42,3.68,3.68,0,0,1-.81,1.21,3.55,3.55,0,0,1-1.21.8,3.63,3.63,0,0,1-1.42.28h-1.27Zm0-7.47h2.38a1.36,1.36,0,0,0,.53-.07,1.24,1.24,0,0,0,.81-1.27,8.81,8.81,0,0,1,2.52-6.35,8.62,8.62,0,0,0,2.35-6.61,8.64,8.64,0,0,0-3.35-6.17,8.41,8.41,0,0,0-6.89-1.64,8.5,8.5,0,0,0-6.93,9.14,7.86,7.86,0,0,0,1.4,4.05c.51.72,1.14,1.36,1.69,2.06a8.51,8.51,0,0,1,1.79,5.38,1.35,1.35,0,0,0,.05.6,1.23,1.23,0,0,0,.32.52,1.25,1.25,0,0,0,.52.31,1.22,1.22,0,0,0,.6,0Zm2.49,2.5h-4.93v1.17a1.28,1.28,0,0,0,.09.48,1.34,1.34,0,0,0,.69.69,1.28,1.28,0,0,0,.48.09h2.42a1.26,1.26,0,0,0,.88-.35,1.23,1.23,0,0,0,.37-.87,8.34,8.34,0,0,0,0-1.24Z" transform="translate(-121.95)"/><path d="M403.6,503h-2.42a1.23,1.23,0,1,1,0-2.46h4.94a1.23,1.23,0,1,1,0,2.46Z" transform="translate(-121.95)"/><path d="M372.53,486.55a3.17,3.17,0,0,1,.76.43c1.16,1.13,2.29,2.27,3.43,3.42a1.17,1.17,0,0,1,.3.4,1.41,1.41,0,0,1,.12.49,1.43,1.43,0,0,1-.09.5,1.34,1.34,0,0,1-.28.42,1.26,1.26,0,0,1-.42.27,1.43,1.43,0,0,1-.5.09,1.21,1.21,0,0,1-.89-.43c-1.15-1.13-2.3-2.27-3.43-3.42a1.19,1.19,0,0,1-.28-1.39,1.39,1.39,0,0,1,.52-.58A1.36,1.36,0,0,1,372.53,486.55Z" transform="translate(-121.95)"/><path d="M397,492.56a1.25,1.25,0,0,1-.73-.17,1.35,1.35,0,0,1-.52-.54,1.14,1.14,0,0,1-.14-.7,1.11,1.11,0,0,1,.31-.64c.33-.38.7-.73,1.06-1.08.81-.82,1.61-1.64,2.44-2.44a1.19,1.19,0,0,1,.57-.36,1.21,1.21,0,0,1,.68,0,1.25,1.25,0,0,1,.58.36,1.35,1.35,0,0,1,.29,1.2,1.14,1.14,0,0,1-.31.5c-1.17,1.18-2.33,2.35-3.52,3.5A2.12,2.12,0,0,1,397,492.56Z" transform="translate(-121.95)"/><path d="M387.57,496.89a1.27,1.27,0,0,1-.09.47,1.27,1.27,0,0,1-.67.67,1.27,1.27,0,0,1-.47.09,3.62,3.62,0,0,0-1.77.43,3.55,3.55,0,0,0-1.34,1.24,4.68,4.68,0,0,0-.44,1,1.22,1.22,0,0,1-.21.48,1.06,1.06,0,0,1-.38.35,1.35,1.35,0,0,1-.5.17,1.13,1.13,0,0,1-.52-.06,1.17,1.17,0,0,1-.46-.26,1.25,1.25,0,0,1-.3-.42,1.35,1.35,0,0,1-.11-.52,1.46,1.46,0,0,1,.12-.51,6.08,6.08,0,0,1,5.88-4.32,1.26,1.26,0,0,1,.47.08,1.16,1.16,0,0,1,.41.25,1.3,1.3,0,0,1,.27.39A1.12,1.12,0,0,1,387.57,496.89Z" transform="translate(-121.95)"/><path class="cls-2" d="M265.93,613a1.18,1.18,0,0,1,0,.59l-60.54.11a1.63,1.63,0,0,1,0-.82Z" transform="translate(-121.95)"/><path class="cls-13" d="M277.15,607.74l-.22-.31.22.33Z" transform="translate(-121.95)"/><path class="cls-5" d="M205.27,612.89a8,8,0,1,0-8,8A8,8,0,0,0,205.27,612.89Z" transform="translate(-121.95)"/><path class="cls-14" d="M353,612.06a43.83,43.83,0,1,0-43.83,43.83A43.83,43.83,0,0,0,353,612.06Z" transform="translate(-121.95)"/><path class="cls-8" d="M343,612.06a34.44,34.44,0,1,0-34.44,34.44A34.44,34.44,0,0,0,343,612.06Z" transform="translate(-121.95)"/><path d="M326.19,592.63v4.13H325v-2.11l-3.62,3.64-.93-.9,3.6-3.6h-2v-1.16Z" transform="translate(-121.95)"/><path d="M295.06,592.63v1.18h-2.13l3.64,3.63-.89.93-3.6-3.59v1.94h-1.16v-3.23A1,1,0,0,1,291,593a.9.9,0,0,1,.29-.38Z" transform="translate(-121.95)"/><path d="M326.19,628.54a1.08,1.08,0,0,1-.39.28,1,1,0,0,1-.48.07h-3.24v-1.16h2.08l-3.63-3.62.89-.93,3.61,3.6v-2h1.16Z" transform="translate(-121.95)"/><path d="M320.19,599.62a16.48,16.48,0,1,1-11.63-4.82A16.52,16.52,0,0,1,320.19,599.62ZM308.54,596a15.31,15.31,0,1,0,14.14,9.44A15.3,15.3,0,0,0,308.56,596Z" transform="translate(-121.95)"/><path d="M291.61,627.89c-.49,0-.7-.21-.7-.72v-3.1a1.41,1.41,0,0,1,0-.29h1.15v2.06l3.63-3.64.94.92L293,626.73h2v1.16Z" transform="translate(-121.95)"/><path d="M321.14,607a2.21,2.21,0,0,1,.28,1.26v1.65c0,1.13.07,1.05-.93,1.53a.41.41,0,0,0-.2.17.39.39,0,0,0,0,.26v2.68c0,.58-.21.79-.79.79h-3.17c-.55,0-.77-.22-.77-.78,0-.76,0-1.52,0-2.27a.85.85,0,0,0-.65-1,.73.73,0,0,1-.43-.32.77.77,0,0,1-.11-.53v-1.93a2.29,2.29,0,0,1,.25-1.41,2.27,2.27,0,0,1,1-1,2.42,2.42,0,0,1,1-2.71,2.36,2.36,0,0,1,1.29-.39,2.42,2.42,0,0,1,2.3,3.1A2.22,2.22,0,0,1,321.14,607Zm-2,7.13v-2.71a.75.75,0,0,1,.1-.51.77.77,0,0,1,.42-.31,1,1,0,0,0,.33-.15.76.76,0,0,0,.24-.26.93.93,0,0,0,.12-.33.88.88,0,0,0,0-.36v-1.45a1,1,0,0,0-.05-.35,1,1,0,0,0-.19-.3.83.83,0,0,0-.28-.21,1,1,0,0,0-.34-.08c-.79-.12-.95-.46-.52-1.12a1.12,1.12,0,0,0,.21-.61,1.15,1.15,0,0,0-.63-1.07,1.1,1.1,0,0,0-.64-.12,1.08,1.08,0,0,0-.6.23,1.12,1.12,0,0,0-.39.52,1.07,1.07,0,0,0-.06.56,1.1,1.1,0,0,0,.22.52c.41.59.22,1-.48,1.09a.9.9,0,0,0-.37.07.87.87,0,0,0-.31.22.94.94,0,0,0-.2.33,1,1,0,0,0,0,.38V610a.5.5,0,0,0,.08.2.46.46,0,0,0,.15.16c.94.49.94.35.94,1.57v2.18Z" transform="translate(-121.95)"/><path d="M305.76,609.52c-.53,0-.73-.2-.73-.73,0-.72,0-1.55,0-2.17s-.09-1-.74-1.22a.61.61,0,0,1-.45-.7v-2.48a2,2,0,0,1,1.07-1.84.31.31,0,0,0,.16-.16.33.33,0,0,0,0-.22,2.28,2.28,0,0,1,0-1,2.22,2.22,0,0,1,.46-.92,2.3,2.3,0,0,1,.81-.64,2.33,2.33,0,0,1,1-.23,2.37,2.37,0,0,1,1,.23,2.3,2.3,0,0,1,.81.64,2.35,2.35,0,0,1,.46.92,2.28,2.28,0,0,1,0,1,.52.52,0,0,0,0,.11.5.5,0,0,0,0,.12l.07.09a.21.21,0,0,0,.1.06,2,2,0,0,1,.79.77,2,2,0,0,1,.27,1.07v1.86c0,1.14.14,1-.94,1.55a.33.33,0,0,0-.19.16.34.34,0,0,0,0,.24v2.75c0,.53-.2.73-.73.73h-3.23Zm2.74-4a.7.7,0,0,1,.49-.8.83.83,0,0,0,.35-.15.81.81,0,0,0,.25-.27.92.92,0,0,0,.13-.36.78.78,0,0,0,0-.37v-1.41a1,1,0,0,0-.26-.66,1,1,0,0,0-.65-.28.72.72,0,0,1-.38-.07.66.66,0,0,1-.28-.27c-.16-.29,0-.52.15-.75a1.1,1.1,0,0,0,.24-.65,1.14,1.14,0,0,0-.19-.67,1.12,1.12,0,0,0-.52-.44,1.13,1.13,0,0,0-.68-.06,1.1,1.1,0,0,0-.61.3,1.12,1.12,0,0,0-.31.6,1.06,1.06,0,0,0,0,.5,1.08,1.08,0,0,0,.22.44.64.64,0,0,1,.15.72.61.61,0,0,1-.28.27.64.64,0,0,1-.38.08,1,1,0,0,0-.37.08.84.84,0,0,0-.31.22.94.94,0,0,0-.19.32,1,1,0,0,0,0,.38v2a.48.48,0,0,0,.06.18.47.47,0,0,0,.14.14c1.12.6,1,.42,1,1.6v2.16h2.35C308.55,607.37,308.56,606.48,308.5,605.51Z" transform="translate(-121.95)"/><path d="M308.08,624.82c-.49,0-.69-.21-.69-.69,0-.75-.06-1.5,0-2.24a1,1,0,0,0-.13-.73,1,1,0,0,0-.6-.44.69.69,0,0,1-.38-.29.67.67,0,0,1-.09-.46v-2.38a2.06,2.06,0,0,1,.27-1.11,2.15,2.15,0,0,1,.81-.8.31.31,0,0,0,.15-.15.27.27,0,0,0,0-.2,3.35,3.35,0,0,1,0-1,2.34,2.34,0,0,1,2.7-1.87,2.5,2.5,0,0,1,.88.35,2.37,2.37,0,0,1,1,1.55,2.34,2.34,0,0,1,0,.95.32.32,0,0,0,0,.17.33.33,0,0,0,.1.14,2.16,2.16,0,0,1,.83.84,2.24,2.24,0,0,1,.26,1.16c0,.61-.06,1.22,0,1.82a1.3,1.3,0,0,1,0,.48,1.21,1.21,0,0,1-.17.46,1.18,1.18,0,0,1-.78.54c-.22.07-.27.22-.27.45v2.72c0,.51-.19.71-.7.71h-1.66Zm2.77-1.24v-2.77a.65.65,0,0,1,.08-.45.67.67,0,0,1,.37-.27,1,1,0,0,0,.36-.17.84.84,0,0,0,.27-.29,1,1,0,0,0,.13-.37,1.07,1.07,0,0,0,0-.4,10,10,0,0,1,0-1.34,1,1,0,0,0,0-.38.92.92,0,0,0-.19-.33,1,1,0,0,0-.31-.22.94.94,0,0,0-.37-.07.64.64,0,0,1-.66-.35.65.65,0,0,1,0-.39.63.63,0,0,1,.18-.34,1.09,1.09,0,0,0,.25-.65,1.06,1.06,0,0,0-.18-.67,1.09,1.09,0,0,0-.51-.44,1.18,1.18,0,0,0-.67-.08,1,1,0,0,0-.65.33,1,1,0,0,0-.29.67,1.91,1.91,0,0,0,.23.9c.12.25.27.46.12.73a.61.61,0,0,1-.28.27.63.63,0,0,1-.38.07.89.89,0,0,0-.9.9v2.07a.52.52,0,0,0,.06.16.43.43,0,0,0,.12.11c1.19.57,1,.44,1,1.67v2.11Z" transform="translate(-121.95)"/><path d="M297,616.17c-.51,0-.7-.2-.7-.71a20.37,20.37,0,0,1,0-2.21,1,1,0,0,0-.13-.75,1,1,0,0,0-.61-.44.6.6,0,0,1-.33-.23.55.55,0,0,1-.12-.39v-2.69a2,2,0,0,1,.28-1,2,2,0,0,1,.72-.71c.19-.11.25-.2.19-.43a2.24,2.24,0,0,1,0-1,2.28,2.28,0,0,1,.46-.92,2.37,2.37,0,0,1,.81-.63,2.31,2.31,0,0,1,2,0,2.37,2.37,0,0,1,.81.63,2.28,2.28,0,0,1,.46.92,2.24,2.24,0,0,1,0,1c-.05.21,0,.3.19.4a2,2,0,0,1,1,1.79v1.93c0,1.1.15,1-.93,1.52a.37.37,0,0,0-.2.17.4.4,0,0,0-.05.26v2.75c0,.49-.2.7-.69.7h-1.65Zm2.69-1.22v-2.66a.79.79,0,0,1,.1-.56.81.81,0,0,1,.46-.33.81.81,0,0,0,.3-.13.64.64,0,0,0,.22-.24.79.79,0,0,0,.12-.3.92.92,0,0,0,0-.33,12.18,12.18,0,0,1,0-1.48.82.82,0,0,0-.05-.38.8.8,0,0,0-.19-.32.84.84,0,0,0-.31-.22,1,1,0,0,0-.37-.08.73.73,0,0,1-.38-.08.61.61,0,0,1-.28-.27.62.62,0,0,1,0-.38.63.63,0,0,1,.18-.34,1.1,1.1,0,0,0,.21-.4,1.41,1.41,0,0,0,0-.46,1.36,1.36,0,0,0-.14-.43,1.22,1.22,0,0,0-.3-.34,1.18,1.18,0,0,0-1.61.16,1.14,1.14,0,0,0-.28.7,1.13,1.13,0,0,0,.22.73c.43.63.24,1-.51,1.1a.91.91,0,0,0-.63.29.93.93,0,0,0-.25.64v2a.44.44,0,0,0,.07.19.38.38,0,0,0,.14.14c1.11.56,1,.4,1,1.63v2.14Z" transform="translate(-121.95)"/><path d="M301.51,619.86c0-.05.09-.15.14-.15h1v1.18h-1.17A8.28,8.28,0,0,1,301.51,619.86Z" transform="translate(-121.95)"/><path d="M301.43,600.3v1.12h-1.16V600.3Z" transform="translate(-121.95)"/><path d="M318,620h-1.17v-1.13H318Z" transform="translate(-121.95)"/><path d="M315,600.25h-1.14v-1.14H315Z" transform="translate(-121.95)"/><path d="M318.52,607.76v1.73h-1.14v-1.73Z" transform="translate(-121.95)"/><path d="M306.81,600.85h1c.06,0,.16.16.16.16v1.59h-1.18Z" transform="translate(-121.95)"/><path d="M309.12,616.15h1.15v1.74h-1.13Z" transform="translate(-121.95)"/><path d="M298,610.25v-1.74h1.16v1.74Z" transform="translate(-121.95)"/><path class="cls-1" d="M264.17,727.63c6.65,3.9,12.54,3.72,18.56,1.25,1.6-.65,3.53-1.57,3.5,1.82-.1,10.92.4,21.65-5.67,31.78-7.35,12.26-18,18.11-31.65,19-7.46.5-15,.08-22.46.11-10.39,0-17.12,6.54-17.12,17.08,0,4.26-.7,5.21-4.9,3.21-5.65-2.68-11.28-1.63-17,2.83-.17-11.7,1.41-21.93,8.77-30.66,8.65-10.25,19.86-14.5,33-14.47h19.47c9.4-.07,15.45-6.2,15.52-15.68C264.17,738.78,264.17,733.64,264.17,727.63Z" transform="translate(-121.95)"/><path class="cls-1" d="M286,702c-6.18-2.41-11.94-4.65-18.44-1.75-3.73,1.66-3.58-1.71-3.39-4,.64-7.4-3.07-12.21-8.93-16-2.25-1.44-4.63-1.54-7.15-1.65-10.91-.46-21.91,1.3-32.73-1.7-9.22-2.55-16.12-8-21.46-15.75-6.52-9.42-7.21-20.09-6.74-31,.1-2.08.24-3.39,3.24-2.14,5.15,2.14,10.58,2.87,15.79-.34,2.1-1.3,3-.51,3,1.86v11c0,9.58,6.62,16,16.19,16.17,11.25.26,22.57-1.18,33.71,1.88,11.65,3.21,24.47,17.59,26.17,29.42A65.62,65.62,0,0,1,286,702Z" transform="translate(-121.95)"/><path class="cls-3" d="M283.28,714.7a5,5,0,0,0,.91-.27h57l1.9.33a2.12,2.12,0,0,1,0,.71l-1.86.31h-58v-.29A1.63,1.63,0,0,1,283.28,714.7Z" transform="translate(-121.95)"/><path class="cls-4" d="M276.17,722.7a8,8,0,1,0-8-8A8,8,0,0,0,276.17,722.7Z" transform="translate(-121.95)"/><path class="cls-10" d="M386.69,751.7a43.83,43.83,0,1,0-43.83-43.83A43.83,43.83,0,0,0,386.69,751.7Z" transform="translate(-121.95)"/><path class="cls-8" d="M386.69,742.31a34.44,34.44,0,1,0-34.44-34.44A34.44,34.44,0,0,0,386.69,742.31Z" transform="translate(-121.95)"/><path d="M386.71,685.53a1.56,1.56,0,0,1,.74.65,1.53,1.53,0,0,1,.18,1v4.51a1.46,1.46,0,0,1-.06.51,1.5,1.5,0,0,1-.26.44,1.25,1.25,0,0,1-.42.3,1.21,1.21,0,0,1-.5.1,1.24,1.24,0,0,1-.5-.1,1.12,1.12,0,0,1-.41-.3,1.17,1.17,0,0,1-.26-.44,1.11,1.11,0,0,1-.06-.51v-4.51a1.53,1.53,0,0,1,.18-1,1.56,1.56,0,0,1,.74-.65Z" transform="translate(-121.95)"/><path d="M365.34,706.25a1.45,1.45,0,0,1,.65-.73,1.46,1.46,0,0,1,1-.18h4.51a1.32,1.32,0,0,1,.52,0,1.24,1.24,0,0,1,.45.25,1.3,1.3,0,0,1,.43.93,1.13,1.13,0,0,1-.12.51,1.07,1.07,0,0,1-.31.42,1.13,1.13,0,0,1-.45.26,1.15,1.15,0,0,1-.52,0H367a1.52,1.52,0,0,1-1-.18,1.56,1.56,0,0,1-.65-.74Z" transform="translate(-121.95)"/><path d="M386.32,727.7a13.85,13.85,0,0,1-2.23-.26,3.52,3.52,0,0,1-1.89-1.27,3.48,3.48,0,0,1-.74-2.15v-.7a2.89,2.89,0,0,0,0-1.24,3.06,3.06,0,0,0-.56-1.11,2.69,2.69,0,0,1-.52-1,2.82,2.82,0,0,1-.1-1.12,6.51,6.51,0,0,0-1.83-4.6,11,11,0,0,1-.89-14.37,10.44,10.44,0,0,1,7-4.24,11,11,0,0,1,5.18.32,10.85,10.85,0,0,1,4.44,2.68,10.58,10.58,0,0,1,3.17,6,11,11,0,0,1-2.25,8.87c-.38.48-.84.91-1.22,1.39a6.14,6.14,0,0,0-1.28,3.86,4,4,0,0,1-1.08,2.84.68.68,0,0,0-.15.43v1.89a3.87,3.87,0,0,1-.28,1.43,3.64,3.64,0,0,1-.81,1.2,3.68,3.68,0,0,1-1.21.81,3.62,3.62,0,0,1-1.42.27h-1.27Zm0-7.47h2.38a1.22,1.22,0,0,0,1-.36,1.25,1.25,0,0,0,.29-.45,1.36,1.36,0,0,0,.07-.53,8.86,8.86,0,0,1,2.52-6.35,8.58,8.58,0,0,0,1.87-3,8.45,8.45,0,0,0,.47-3.56,8.62,8.62,0,0,0-1-3.44,8.74,8.74,0,0,0-2.33-2.73,8.36,8.36,0,0,0-3.27-1.58,8.5,8.5,0,0,0-3.62-.06,8.25,8.25,0,0,0-3.06,1.19,8,8,0,0,0-2.36,2.28,8.42,8.42,0,0,0-1.51,5.67,7.74,7.74,0,0,0,1.4,4c.51.72,1.14,1.36,1.69,2.06a8.59,8.59,0,0,1,1.79,5.38,1.26,1.26,0,0,0,.05.61,1.19,1.19,0,0,0,.32.51,1.3,1.3,0,0,0,.51.32,1.26,1.26,0,0,0,.61,0Zm2.49,2.5h-4.93v1.17a1.37,1.37,0,0,0,.09.49,1.22,1.22,0,0,0,.68.68,1.37,1.37,0,0,0,.49.09h2.42a1.22,1.22,0,0,0,.87-.35,1.24,1.24,0,0,0,.38-.87,8.34,8.34,0,0,0,0-1.24Z" transform="translate(-121.95)"/><path d="M403.65,707.81h-2.42a1.23,1.23,0,0,1-1.23-1.23,1.24,1.24,0,0,1,.36-.87,1.23,1.23,0,0,1,.87-.36h4.94a1.23,1.23,0,0,1,1.23,1.23,1.23,1.23,0,0,1-.36.87,1.24,1.24,0,0,1-.87.36Z" transform="translate(-121.95)"/><path d="M372.58,691.36a3.17,3.17,0,0,1,.76.43c1.16,1.13,2.29,2.27,3.43,3.42a1.36,1.36,0,0,1,.3.41,1.17,1.17,0,0,1,.11.49,1,1,0,0,1-.09.49,1.17,1.17,0,0,1-.27.42,1.21,1.21,0,0,1-.43.27,1,1,0,0,1-.49.09A1.21,1.21,0,0,1,375,697q-1.74-1.68-3.43-3.42a1.19,1.19,0,0,1-.28-1.39,1.32,1.32,0,0,1,.52-.58A1.36,1.36,0,0,1,372.58,691.36Z" transform="translate(-121.95)"/><path d="M397,697.37a1.32,1.32,0,0,1-1.25-.71,1.11,1.11,0,0,1-.14-.69,1.13,1.13,0,0,1,.31-.65c.33-.38.7-.73,1.06-1.08.81-.82,1.61-1.64,2.44-2.44a1.19,1.19,0,0,1,.57-.36,1.21,1.21,0,0,1,.68,0,1.25,1.25,0,0,1,.58.35,1.3,1.3,0,0,1,.3.61,1.07,1.07,0,0,1,0,.59,1.12,1.12,0,0,1-.3.5c-1.17,1.18-2.33,2.35-3.52,3.5A2.12,2.12,0,0,1,397,697.37Z" transform="translate(-121.95)"/><path d="M387.62,701.7a1.23,1.23,0,0,1-.09.47,1.27,1.27,0,0,1-.27.41,1.2,1.2,0,0,1-.4.26,1.27,1.27,0,0,1-.47.09,3.59,3.59,0,0,0-3.11,1.67,4.23,4.23,0,0,0-.44,1,1.3,1.3,0,0,1-.21.48,1.22,1.22,0,0,1-.89.52,1.32,1.32,0,0,1-.52-.05,1.38,1.38,0,0,1-.45-.27,1.25,1.25,0,0,1-.3-.42,1.21,1.21,0,0,1,0-1,6,6,0,0,1,2.22-3.13,6.09,6.09,0,0,1,3.66-1.19,1.26,1.26,0,0,1,.47.08,1.33,1.33,0,0,1,.41.25,1.34,1.34,0,0,1,.27.4A1.2,1.2,0,0,1,387.62,701.7Z" transform="translate(-121.95)"/><path class="cls-2" d="M265.86,817.78a1,1,0,0,1,0,.59l-60.54.11a1.63,1.63,0,0,1,0-.82Z" transform="translate(-121.95)"/><path class="cls-13" d="M277.08,808.51l-.22-.31.22.33Z" transform="translate(-121.95)"/><path class="cls-5" d="M205.2,817.66a8,8,0,1,0-8,8A8,8,0,0,0,205.2,817.66Z" transform="translate(-121.95)"/><path class="cls-14" d="M352.93,817.83a43.83,43.83,0,1,0-43.83,43.83A43.83,43.83,0,0,0,352.93,817.83Z" transform="translate(-121.95)"/><path class="cls-8" d="M342.91,817.83a34.44,34.44,0,1,0-34.44,34.44A34.44,34.44,0,0,0,342.91,817.83Z" transform="translate(-121.95)"/><path d="M326.12,799.4v4.13h-1.19v-2.11l-3.62,3.64-.93-.9,3.6-3.6h-2V799.4Z" transform="translate(-121.95)"/><path d="M295,799.4v1.18h-2.13l3.64,3.63-.89.93-3.6-3.59v1.94h-1.16v-3.23a1,1,0,0,1,.06-.48.9.9,0,0,1,.29-.38Z" transform="translate(-121.95)"/><path d="M326.12,834.31a1,1,0,0,1-.39.28,1,1,0,0,1-.48.07H322V833.5h2.08l-3.63-3.62.89-.93,3.61,3.6v-2h1.16Z" transform="translate(-121.95)"/><path d="M320.12,805.39a16.48,16.48,0,1,1-11.63-4.82A16.48,16.48,0,0,1,320.12,805.39Zm-11.65-3.64a15.29,15.29,0,0,0-5.82,29.42,15.33,15.33,0,0,0,16.66-3.32,15.29,15.29,0,0,0-10.82-26.1Z" transform="translate(-121.95)"/><path d="M291.54,834.66c-.49,0-.7-.21-.7-.72v-3.39H292v2.06l3.63-3.64.94.92L293,833.5h2v1.16Z" transform="translate(-121.95)"/><path d="M321.07,812.79a2.13,2.13,0,0,1,.28,1.26v1.65c0,1.13.07,1-.93,1.53a.35.35,0,0,0-.19.17.4.4,0,0,0-.05.26v2.68c0,.58-.21.79-.79.79h-3.17c-.55,0-.77-.22-.77-.78,0-.76-.05-1.52,0-2.27a.87.87,0,0,0-.12-.63.84.84,0,0,0-.53-.37.73.73,0,0,1-.43-.32.77.77,0,0,1-.11-.53V814.3a2.3,2.3,0,0,1,1.29-2.4,2.4,2.4,0,0,1,.05-1.52,2.41,2.41,0,0,1,2.25-1.58,2.42,2.42,0,0,1,2.24,1.58,2.4,2.4,0,0,1,.05,1.52A2.22,2.22,0,0,1,321.07,812.79Zm-2,7.13v-2.71a.74.74,0,0,1,.52-.82.82.82,0,0,0,.33-.15.75.75,0,0,0,.24-.26.77.77,0,0,0,.12-.33.88.88,0,0,0,0-.36v-1.45a.83.83,0,0,0-.05-.35.92.92,0,0,0-.18-.3.86.86,0,0,0-.29-.21.94.94,0,0,0-.34-.08c-.79-.12-.95-.46-.52-1.12a1,1,0,0,0,.21-.61,1.08,1.08,0,0,0-.16-.63,1.17,1.17,0,0,0-.47-.44,1.29,1.29,0,0,0-.64-.13,1.18,1.18,0,0,0-.6.24,1.12,1.12,0,0,0-.39.52,1.33,1.33,0,0,0-.06.56,1.21,1.21,0,0,0,.22.52c.41.59.22,1-.48,1.09a.94.94,0,0,0-.37.07.87.87,0,0,0-.31.22.94.94,0,0,0-.2.33,1,1,0,0,0,0,.38v1.89a.5.5,0,0,0,.08.2.46.46,0,0,0,.15.16c.94.49.94.35.94,1.57v2.18Z" transform="translate(-121.95)"/><path d="M305.69,815.29c-.53,0-.73-.2-.73-.73,0-.72,0-1.55,0-2.17s-.09-1-.74-1.22a.61.61,0,0,1-.45-.7V808a2,2,0,0,1,.27-1.07,2,2,0,0,1,.8-.77A.31.31,0,0,0,305,806a.28.28,0,0,0,0-.22,2.43,2.43,0,0,1,0-1,2.35,2.35,0,0,1,.46-.92,2.28,2.28,0,0,1,.81-.64,2.37,2.37,0,0,1,1-.23,2.33,2.33,0,0,1,1,.23,2.23,2.23,0,0,1,.82.64,2.49,2.49,0,0,1,.46.92,2.43,2.43,0,0,1,0,1,.43.43,0,0,0,0,.11.27.27,0,0,0,0,.12.24.24,0,0,0,.06.09.27.27,0,0,0,.1.06,2,2,0,0,1,.8.77,2,2,0,0,1,.26,1.07v1.86c0,1.14.14,1-.94,1.55a.33.33,0,0,0-.19.16.34.34,0,0,0-.05.24v2.75c0,.53-.2.73-.73.73h-3.23Zm2.74-4a.69.69,0,0,1,.09-.49.72.72,0,0,1,.4-.31.78.78,0,0,0,.35-.15,1,1,0,0,0,.26-.27,1.12,1.12,0,0,0,.12-.35.81.81,0,0,0,0-.38v-1.41a1,1,0,0,0-.26-.66.92.92,0,0,0-.65-.28.72.72,0,0,1-.38-.07.66.66,0,0,1-.28-.27c-.16-.29,0-.52.15-.75a1,1,0,0,0,.24-.65,1.18,1.18,0,0,0-.71-1.11,1.13,1.13,0,0,0-.68-.06,1,1,0,0,0-.6.3,1.07,1.07,0,0,0-.32.6,1.06,1.06,0,0,0,0,.5,1.08,1.08,0,0,0,.22.44.64.64,0,0,1,.19.34.7.7,0,0,1,0,.38.61.61,0,0,1-.28.27.63.63,0,0,1-.38.08,1,1,0,0,0-.37.08.84.84,0,0,0-.31.22.94.94,0,0,0-.19.32,1,1,0,0,0,0,.38v2a.55.55,0,0,0,.06.18.47.47,0,0,0,.14.14c1.12.6,1,.42,1,1.6v2.16h2.35C308.48,813.14,308.49,812.25,308.43,811.28Z" transform="translate(-121.95)"/><path d="M308,830.59c-.49,0-.69-.21-.69-.69,0-.75-.06-1.5,0-2.24a1,1,0,0,0-.73-1.17.69.69,0,0,1-.47-.75v-2.38a2.15,2.15,0,0,1,.27-1.11,2.08,2.08,0,0,1,.81-.8.29.29,0,0,0,.16-.35,3.35,3.35,0,0,1,0-1,2.34,2.34,0,0,1,2.7-1.87,2.55,2.55,0,0,1,.89.35,2.51,2.51,0,0,1,.67.67,2.4,2.4,0,0,1,.35,1.83.47.47,0,0,0,0,.17.45.45,0,0,0,.1.14,2.16,2.16,0,0,1,.83.84,2.06,2.06,0,0,1,.26,1.16c0,.61-.06,1.22,0,1.82a1.34,1.34,0,0,1,0,.49,1.08,1.08,0,0,1-.17.45,1.1,1.1,0,0,1-.33.35,1.27,1.27,0,0,1-.45.19c-.22.07-.27.22-.27.45v2.72c0,.51-.19.71-.7.71h-1.66Zm2.77-1.24v-2.77a.64.64,0,0,1,.45-.72,1.17,1.17,0,0,0,.36-.16,1,1,0,0,0,.27-.3A.82.82,0,0,0,312,825a.9.9,0,0,0,0-.4c0-.45,0-.89,0-1.34a.81.81,0,0,0,0-.38.92.92,0,0,0-.19-.33.87.87,0,0,0-.31-.22.9.9,0,0,0-.37-.07.62.62,0,0,1-.38-.07.63.63,0,0,1-.28-.28.65.65,0,0,1,0-.39.63.63,0,0,1,.18-.34,1.09,1.09,0,0,0,.25-.65,1.06,1.06,0,0,0-.18-.67,1.15,1.15,0,0,0-.51-.44,1.18,1.18,0,0,0-.67-.08,1,1,0,0,0-.65.33,1.05,1.05,0,0,0-.29.67,1.91,1.91,0,0,0,.23.9c.12.25.27.46.12.73a.61.61,0,0,1-.28.27.62.62,0,0,1-.38.07.86.86,0,0,0-.63.26.91.91,0,0,0-.27.64v2.07a.52.52,0,0,0,.06.16.43.43,0,0,0,.12.11c1.19.57,1,.44,1,1.67v2.11Z" transform="translate(-121.95)"/><path d="M296.91,822.94c-.51,0-.7-.2-.7-.71a20.37,20.37,0,0,1,0-2.21,1,1,0,0,0-.13-.75,1,1,0,0,0-.61-.44.64.64,0,0,1-.33-.23.6.6,0,0,1-.12-.39v-2.69a2,2,0,0,1,.28-1,2,2,0,0,1,.72-.71c.19-.11.25-.2.19-.43a2.24,2.24,0,0,1,0-1,2.28,2.28,0,0,1,.46-.92,2.38,2.38,0,0,1,1.82-.86,2.32,2.32,0,0,1,1,.23,2.28,2.28,0,0,1,.81.63,2.44,2.44,0,0,1,.47.92,2.39,2.39,0,0,1,0,1c-.05.21,0,.3.19.4a2,2,0,0,1,1,1.79v1.93c0,1.1.15,1-.93,1.52a.41.41,0,0,0-.2.17.47.47,0,0,0-.05.26v2.75c0,.49-.2.7-.69.7h-1.65Zm2.69-1.22v-2.66a.79.79,0,0,1,.1-.56.81.81,0,0,1,.46-.33.81.81,0,0,0,.3-.13.88.88,0,0,0,.23-.24,1.08,1.08,0,0,0,.11-.3.74.74,0,0,0,0-.33c0-.49,0-1,0-1.48a.84.84,0,0,0-.24-.7.77.77,0,0,0-.31-.22.91.91,0,0,0-.37-.08.73.73,0,0,1-.38-.08.66.66,0,0,1-.28-.27.66.66,0,0,1,.14-.72,1.1,1.1,0,0,0,.21-.4,1.15,1.15,0,0,0,0-.45,1.33,1.33,0,0,0-.14-.44,1.22,1.22,0,0,0-.3-.34,1.18,1.18,0,0,0-1.61.16,1.14,1.14,0,0,0-.28.7,1.19,1.19,0,0,0,.22.73c.43.63.24,1-.51,1.1a.91.91,0,0,0-.63.29.93.93,0,0,0-.25.64v2a.44.44,0,0,0,.07.19.62.62,0,0,0,.14.14c1.11.56,1,.4,1,1.63v2.14Z" transform="translate(-121.95)"/><path d="M301.44,826.63s.09-.15.14-.15h1v1.18h-1.17A8.28,8.28,0,0,1,301.44,826.63Z" transform="translate(-121.95)"/><path d="M301.36,807.07v1.12H300.2v-1.12Z" transform="translate(-121.95)"/><path d="M317.88,825.79h-1.17v-1.13h1.17Z" transform="translate(-121.95)"/><path d="M314.93,807h-1.14v-1.14h1.14Z" transform="translate(-121.95)"/><path d="M318.45,813.53v1.73h-1.14v-1.73Z" transform="translate(-121.95)"/><path d="M306.74,807.62h1c.06,0,.16.16.16.16v1.59h-1.18Z" transform="translate(-121.95)"/><path d="M309.05,822.92h1.15v1.74h-1.13Z" transform="translate(-121.95)"/><path d="M297.9,817v-1.74h1.16V817Z" transform="translate(-121.95)"/><path class="cls-1" d="M264.17,931.4c6.65,3.9,12.54,3.72,18.56,1.25,1.6-.65,3.53-1.57,3.5,1.82-.1,10.92.4,21.65-5.67,31.78-7.35,12.26-18,18.11-31.65,19-7.46.5-15,.08-22.46.11-10.39,0-17.12,6.54-17.12,17.08,0,4.26-.7,5.21-4.9,3.21-5.65-2.68-11.28-1.63-17,2.83-.17-11.7,1.41-21.93,8.77-30.66,8.65-10.25,19.86-14.5,33-14.47h19.47c9.4-.07,15.45-6.2,15.52-15.68C264.17,942.55,264.17,937.41,264.17,931.4Z" transform="translate(-121.95)"/><path class="cls-1" d="M286,905.72c-6.18-2.41-11.94-4.65-18.44-1.75-3.73,1.66-3.58-1.71-3.39-4,.64-7.4-3.07-12.21-8.93-16-2.25-1.44-4.63-1.54-7.15-1.65-10.91-.46-21.91,1.3-32.73-1.7-9.22-2.55-16.12-8-21.46-15.75-6.52-9.42-7.21-20.09-6.74-31,.1-2.08.24-3.39,3.24-2.14,5.15,2.14,10.58,2.87,15.79-.34,2.1-1.3,3-.51,3,1.86v11c0,9.58,6.62,16,16.19,16.17,11.25.26,22.57-1.18,33.71,1.88,11.65,3.21,24.47,17.59,26.17,29.42A65.62,65.62,0,0,1,286,905.72Z" transform="translate(-121.95)"/><path class="cls-3" d="M283.28,918.47a5,5,0,0,0,.91-.27h57l1.9.33a2.12,2.12,0,0,1,0,.71l-1.86.31h-58v-.29A1.63,1.63,0,0,1,283.28,918.47Z" transform="translate(-121.95)"/><path class="cls-4" d="M276.17,926.47a8,8,0,1,0-8-8A8,8,0,0,0,276.17,926.47Z" transform="translate(-121.95)"/><path class="cls-10" d="M386.69,955.47a43.83,43.83,0,1,0-43.83-43.83A43.83,43.83,0,0,0,386.69,955.47Z" transform="translate(-121.95)"/><path class="cls-8" d="M386.69,946.08a34.44,34.44,0,1,0-34.44-34.44A34.44,34.44,0,0,0,386.69,946.08Z" transform="translate(-121.95)"/><path d="M386.71,889.3a1.56,1.56,0,0,1,.74.65,1.53,1.53,0,0,1,.18,1v4.51a1.46,1.46,0,0,1-.06.51,1.5,1.5,0,0,1-.26.44,1.25,1.25,0,0,1-.42.3,1.21,1.21,0,0,1-.5.1,1.24,1.24,0,0,1-.5-.1,1.12,1.12,0,0,1-.41-.3,1.17,1.17,0,0,1-.26-.44,1.11,1.11,0,0,1-.06-.51v-4.51a1.53,1.53,0,0,1,.18-1,1.56,1.56,0,0,1,.74-.65Z" transform="translate(-121.95)"/><path d="M365.34,910a1.49,1.49,0,0,1,.65-.73,1.46,1.46,0,0,1,1-.18h4.51a1.32,1.32,0,0,1,.52,0,1.24,1.24,0,0,1,.45.25,1.3,1.3,0,0,1,.43.93,1.13,1.13,0,0,1-.12.51,1.07,1.07,0,0,1-.31.42,1.13,1.13,0,0,1-.45.26,1.31,1.31,0,0,1-.52,0H367a1.52,1.52,0,0,1-1-.18,1.56,1.56,0,0,1-.65-.74Z" transform="translate(-121.95)"/><path d="M386.32,931.47a15.08,15.08,0,0,1-2.23-.26,3.55,3.55,0,0,1-2.63-3.42v-.7a2.89,2.89,0,0,0,0-1.24,3.15,3.15,0,0,0-.56-1.11,2.69,2.69,0,0,1-.52-1,2.82,2.82,0,0,1-.1-1.12,6.51,6.51,0,0,0-1.83-4.6,11,11,0,0,1-.89-14.37,10.44,10.44,0,0,1,7-4.24,11,11,0,0,1,5.18.32,10.85,10.85,0,0,1,4.44,2.68,10.58,10.58,0,0,1,3.17,6,11,11,0,0,1-2.25,8.87c-.38.48-.84.91-1.22,1.39a6.14,6.14,0,0,0-1.28,3.86,4,4,0,0,1-1.08,2.84.68.68,0,0,0-.15.43v1.89a3.91,3.91,0,0,1-.28,1.43,3.64,3.64,0,0,1-.81,1.2,3.68,3.68,0,0,1-1.21.81,3.81,3.81,0,0,1-1.42.27h-1.27Zm0-7.47h2.38a1.22,1.22,0,0,0,1-.36,1.25,1.25,0,0,0,.29-.45,1.36,1.36,0,0,0,.07-.53,8.81,8.81,0,0,1,2.52-6.35,8.62,8.62,0,0,0,2.34-6.61,8.62,8.62,0,0,0-1-3.44,8.74,8.74,0,0,0-2.33-2.73,8.36,8.36,0,0,0-3.27-1.58,8.5,8.5,0,0,0-3.62-.06,8.25,8.25,0,0,0-3.06,1.19,8,8,0,0,0-2.36,2.28,8.42,8.42,0,0,0-1.51,5.67,7.74,7.74,0,0,0,1.4,4.05c.51.72,1.14,1.36,1.69,2.06a8.59,8.59,0,0,1,1.79,5.38,1.27,1.27,0,0,0,.05.61,1.19,1.19,0,0,0,.32.51,1.3,1.3,0,0,0,.51.32,1.39,1.39,0,0,0,.61,0Zm2.49,2.5h-4.93v1.17a1.37,1.37,0,0,0,.09.49,1.22,1.22,0,0,0,.68.68,1.37,1.37,0,0,0,.49.09h2.42a1.22,1.22,0,0,0,.87-.35,1.24,1.24,0,0,0,.38-.87,8.34,8.34,0,0,0,0-1.24Z" transform="translate(-121.95)"/><path d="M403.65,911.58h-2.42a1.23,1.23,0,0,1-1.23-1.23,1.24,1.24,0,0,1,.36-.87,1.23,1.23,0,0,1,.87-.36h4.94a1.23,1.23,0,0,1,1.23,1.23,1.23,1.23,0,0,1-.36.87,1.24,1.24,0,0,1-.87.36Z" transform="translate(-121.95)"/><path d="M372.58,895.13a3.55,3.55,0,0,1,.76.43c1.16,1.13,2.29,2.27,3.43,3.42a1.24,1.24,0,0,1,.3.41,1.17,1.17,0,0,1,.11.49,1,1,0,0,1-.09.49,1.17,1.17,0,0,1-.27.42,1.39,1.39,0,0,1-.43.28,1.18,1.18,0,0,1-.49.08,1.21,1.21,0,0,1-.89-.43q-1.74-1.68-3.43-3.42a1.19,1.19,0,0,1-.28-1.39,1.32,1.32,0,0,1,.52-.58A1.36,1.36,0,0,1,372.58,895.13Z" transform="translate(-121.95)"/><path d="M397,901.14a1.32,1.32,0,0,1-1.25-.71,1.12,1.12,0,0,1,.17-1.34c.33-.38.7-.73,1.06-1.08.81-.82,1.61-1.64,2.44-2.44a1.19,1.19,0,0,1,.57-.36,1.21,1.21,0,0,1,.68,0,1.25,1.25,0,0,1,.58.35,1.3,1.3,0,0,1,.3.61,1.07,1.07,0,0,1,0,.59,1.12,1.12,0,0,1-.3.5c-1.17,1.18-2.33,2.35-3.52,3.5A2.12,2.12,0,0,1,397,901.14Z" transform="translate(-121.95)"/><path d="M387.62,905.47a1.32,1.32,0,0,1-.09.48,1.48,1.48,0,0,1-.27.4,1.2,1.2,0,0,1-.4.26,1.27,1.27,0,0,1-.47.09,3.69,3.69,0,0,0-1.78.43,3.6,3.6,0,0,0-1.33,1.24,4.23,4.23,0,0,0-.44,1,1.3,1.3,0,0,1-.21.48,1.22,1.22,0,0,1-.89.52,1.32,1.32,0,0,1-.52,0,1.38,1.38,0,0,1-.45-.27,1.25,1.25,0,0,1-.3-.42,1.21,1.21,0,0,1,0-1,6,6,0,0,1,2.22-3.13,6.09,6.09,0,0,1,3.66-1.19,1.26,1.26,0,0,1,.47.08,1.55,1.55,0,0,1,.41.25,1.34,1.34,0,0,1,.27.4A1.2,1.2,0,0,1,387.62,905.47Z" transform="translate(-121.95)"/><path class="cls-15" d="M296.51,93V91.48l3.79-3.58a4.58,4.58,0,0,0,.67-.72,1.91,1.91,0,0,0,.29-.59,2.24,2.24,0,0,0,.07-.51,1.08,1.08,0,0,0-.09-.5,1.2,1.2,0,0,0-.31-.4,1.83,1.83,0,0,0-1.18-.33,2.64,2.64,0,0,0-1.14.26,2.29,2.29,0,0,0-.89.74l-1.67-1.07a3.67,3.67,0,0,1,1.56-1.33A5.24,5.24,0,0,1,300,83a4.75,4.75,0,0,1,1.93.35,2.78,2.78,0,0,1,1.27,1,2.65,2.65,0,0,1,.47,1.56,3.34,3.34,0,0,1-.62,1.94A7.2,7.2,0,0,1,302,89l-3.12,3-.45-.83h5.55V93Z" transform="translate(-121.95)"/><path class="cls-16" d="M309,93.13a4,4,0,0,1-2.15-.6,4.19,4.19,0,0,1-1.5-1.73,7.06,7.06,0,0,1-.56-2.76,7.13,7.13,0,0,1,.56-2.76,4.16,4.16,0,0,1,1.5-1.72,4.19,4.19,0,0,1,4.32,0,4.12,4.12,0,0,1,1.51,1.72,7.31,7.31,0,0,1,.55,2.76,7.23,7.23,0,0,1-.55,2.76,4.08,4.08,0,0,1-1.51,1.73A4,4,0,0,1,309,93.13Zm0-1.91a1.54,1.54,0,0,0,1-.34,2.15,2.15,0,0,0,.67-1,6.74,6.74,0,0,0,0-3.62,2.15,2.15,0,0,0-.67-1,1.67,1.67,0,0,0-2,0,2.17,2.17,0,0,0-.68,1,6.55,6.55,0,0,0,0,3.62,2.17,2.17,0,0,0,.68,1A1.6,1.6,0,0,0,309,91.22Z" transform="translate(-121.95)"/><path class="cls-17" d="M314.32,92.83V91.36l3.79-3.58a4.65,4.65,0,0,0,.67-.73,1.76,1.76,0,0,0,.29-.58,2.32,2.32,0,0,0,.07-.52,1,1,0,0,0-.09-.49,1.14,1.14,0,0,0-.31-.41,1.82,1.82,0,0,0-1.18-.32,2.5,2.5,0,0,0-1.14.25,2.38,2.38,0,0,0-.89.74l-1.67-1.06a3.69,3.69,0,0,1,1.56-1.34,5.24,5.24,0,0,1,2.34-.49,5,5,0,0,1,1.92.35,2.9,2.9,0,0,1,1.28,1,2.55,2.55,0,0,1,.46,1.56,3.26,3.26,0,0,1-.61,1.93,7.25,7.25,0,0,1-1,1.17l-3.12,3L316.2,91h5.55v1.86Z" transform="translate(-121.95)"/><path class="cls-18" d="M323.68,93V91.54L327.47,88a4.65,4.65,0,0,0,.67-.73,1.86,1.86,0,0,0,.29-.58,2.32,2.32,0,0,0,.07-.52,1.23,1.23,0,0,0-.09-.5,1.2,1.2,0,0,0-.31-.4,1.77,1.77,0,0,0-1.18-.32,2.47,2.47,0,0,0-1.14.25,2.38,2.38,0,0,0-.89.74l-1.67-1.06a3.63,3.63,0,0,1,1.56-1.34,5.24,5.24,0,0,1,2.34-.49,5,5,0,0,1,1.92.35,2.83,2.83,0,0,1,1.28,1,2.55,2.55,0,0,1,.46,1.56,3.26,3.26,0,0,1-.61,1.93,7.25,7.25,0,0,1-1,1.17L326,92l-.45-.83h5.55V93Z" transform="translate(-121.95)"/><path d="M297.45,94.94l2.05,5.82h.08l2.05-5.82h.88L300,101.85h-.86l-2.54-6.91Zm6,6.91V96.67h.8v5.18Zm.41-6a.58.58,0,0,1-.4-.16.52.52,0,0,1,0-.77.57.57,0,0,1,.4-.15.59.59,0,0,1,.4.15.53.53,0,0,1,.16.39.52.52,0,0,1-.16.38A.59.59,0,0,1,303.88,95.81Zm4,6.15a2.43,2.43,0,0,1-1.29-.33,2.36,2.36,0,0,1-.84-.93,3.52,3.52,0,0,1,0-2.8,2.25,2.25,0,0,1,.82-1,2.19,2.19,0,0,1,1.23-.35,2.5,2.5,0,0,1,.8.14,2,2,0,0,1,.72.44,2.16,2.16,0,0,1,.51.79,3.36,3.36,0,0,1,.19,1.22v.34h-4v-.69h3.18a1.66,1.66,0,0,0-.17-.78,1.35,1.35,0,0,0-.49-.54,1.32,1.32,0,0,0-.75-.2,1.46,1.46,0,0,0-.82.23,1.56,1.56,0,0,0-.53.61,1.71,1.71,0,0,0-.19.8v.46a2.35,2.35,0,0,0,.2,1,1.47,1.47,0,0,0,.57.61,1.83,1.83,0,0,0,1.42.12,1.25,1.25,0,0,0,.44-.27,1.15,1.15,0,0,0,.28-.45l.77.22a1.63,1.63,0,0,1-.41.69,2,2,0,0,1-.7.46A2.82,2.82,0,0,1,307.9,102Zm4.53-.11-1.58-5.18h.84l1.12,4h.05l1.11-4h.85l1.09,4h0l1.12-4h.84l-1.58,5.18h-.78l-1.13-4h-.09l-1.13,4Zm9.6,0h-.87l2.53-6.91h.87l2.53,6.91h-.87L324.15,96h0Zm.33-2.7h3.53v.74h-3.53Zm6.5-4.21v6.91h-.8V94.94Zm2.25,0v6.91h-.8V94.94Z" transform="translate(-121.95)"/><path class="cls-11" d="M248.22,194.67v-8.85l1,1h-2.91V185h4.18v9.68Z" transform="translate(-121.95)"/><path class="cls-11" d="M219.93,194.78V193.3l3.79-3.58a5.06,5.06,0,0,0,.67-.72,1.91,1.91,0,0,0,.29-.59,2.24,2.24,0,0,0,.07-.51,1.08,1.08,0,0,0-.09-.5,1.11,1.11,0,0,0-.31-.4,1.83,1.83,0,0,0-1.18-.33,2.51,2.51,0,0,0-1.14.26,2.29,2.29,0,0,0-.89.74l-1.67-1.07a3.67,3.67,0,0,1,1.56-1.33,5.24,5.24,0,0,1,2.34-.49,4.75,4.75,0,0,1,1.93.35,2.86,2.86,0,0,1,1.28,1,2.72,2.72,0,0,1,.46,1.56,3.37,3.37,0,0,1-.62,1.94,7.2,7.2,0,0,1-1,1.17l-3.12,2.95-.45-.83h5.55v1.86Z" transform="translate(-121.95)"/><path class="cls-11" d="M232.42,195a4,4,0,0,1-2.15-.6,4.19,4.19,0,0,1-1.5-1.73,7.08,7.08,0,0,1,0-5.52,4.16,4.16,0,0,1,1.5-1.72,4.19,4.19,0,0,1,4.32,0,4.06,4.06,0,0,1,1.51,1.72,7.2,7.2,0,0,1,0,5.52,4.08,4.08,0,0,1-1.51,1.73A4,4,0,0,1,232.42,195Zm0-1.91a1.54,1.54,0,0,0,1-.34,2.15,2.15,0,0,0,.67-1,6.74,6.74,0,0,0,0-3.62,2.23,2.23,0,0,0-.67-1,1.71,1.71,0,0,0-2,0,2.25,2.25,0,0,0-.68,1,6.55,6.55,0,0,0,0,3.62,2.17,2.17,0,0,0,.68,1A1.6,1.6,0,0,0,232.42,193Z" transform="translate(-121.95)"/><path class="cls-11" d="M237.74,194.65v-1.47l3.79-3.59a4.18,4.18,0,0,0,.67-.72,1.81,1.81,0,0,0,.29-.59,2.16,2.16,0,0,0,.07-.51,1.08,1.08,0,0,0-.09-.5,1.2,1.2,0,0,0-.31-.4,1.77,1.77,0,0,0-1.18-.32,2.5,2.5,0,0,0-1.14.25,2.38,2.38,0,0,0-.89.74l-1.67-1.07a3.67,3.67,0,0,1,1.56-1.33,5.24,5.24,0,0,1,2.34-.49,5,5,0,0,1,1.92.35,2.76,2.76,0,0,1,1.28,1,2.55,2.55,0,0,1,.46,1.56,3.26,3.26,0,0,1-.61,1.93,7.25,7.25,0,0,1-1,1.17l-3.12,3-.45-.83h5.55v1.86Z" transform="translate(-121.95)"/><path d="M220.59,196.17l1.81,5.12h.07l1.8-5.12H225l-2.23,6.08h-.76l-2.23-6.08Zm5.31,6.08v-4.56h.7v4.56Zm.35-5.32a.52.52,0,0,1-.35-.14.45.45,0,0,1-.15-.34.43.43,0,0,1,.15-.33.47.47,0,0,1,.35-.14.45.45,0,0,1,.35.14.43.43,0,0,1,.15.33.45.45,0,0,1-.15.34A.48.48,0,0,1,226.25,196.93Zm3.54,5.41a2.19,2.19,0,0,1-1.14-.29,1.94,1.94,0,0,1-.73-.82,2.79,2.79,0,0,1-.25-1.23,2.82,2.82,0,0,1,.25-1.23,2,2,0,0,1,.72-.84,2,2,0,0,1,1.08-.3,2.1,2.1,0,0,1,.7.12,1.68,1.68,0,0,1,.64.38,1.84,1.84,0,0,1,.45.7,3.06,3.06,0,0,1,.17,1.08v.29h-3.52v-.6H231a1.53,1.53,0,0,0-.16-.69,1.17,1.17,0,0,0-.43-.48,1.3,1.3,0,0,0-.66-.17,1.22,1.22,0,0,0-.72.21,1.27,1.27,0,0,0-.47.53,1.54,1.54,0,0,0-.16.71v.4a2.12,2.12,0,0,0,.17.88,1.4,1.4,0,0,0,.51.54,1.47,1.47,0,0,0,.74.18,1.55,1.55,0,0,0,.5-.07,1.28,1.28,0,0,0,.39-.24,1.09,1.09,0,0,0,.25-.4l.68.19a1.52,1.52,0,0,1-.36.61,1.89,1.89,0,0,1-.62.4A2.47,2.47,0,0,1,229.79,202.34Zm4-.09-1.39-4.56h.73l1,3.49h0l1-3.49h.75l1,3.48h0l1-3.48h.74l-1.39,4.56h-.69l-1-3.51h-.08l-1,3.51Zm8.45,0h-.77l2.23-6.08h.76l2.23,6.08h-.77l-1.81-5.12h0Zm.29-2.38h3.11v.66h-3.11Zm5.72-3.7v6.08h-.7v-6.08Zm2,0v6.08h-.7v-6.08Z" transform="translate(-121.95)"/><path class="cls-19" d="M296,295.28v-1.47l3.8-3.58a4.65,4.65,0,0,0,.67-.73,1.73,1.73,0,0,0,.28-.58,2.25,2.25,0,0,0,.08-.52,1.16,1.16,0,0,0-.1-.49,1,1,0,0,0-.3-.4,1.79,1.79,0,0,0-1.18-.33,2.42,2.42,0,0,0-1.15.26,2.27,2.27,0,0,0-.89.74l-1.67-1.07a3.82,3.82,0,0,1,1.56-1.34,5.44,5.44,0,0,1,2.34-.49,5.08,5.08,0,0,1,1.93.35,2.9,2.9,0,0,1,1.28,1,2.69,2.69,0,0,1,.46,1.56,3.27,3.27,0,0,1-.62,1.93,7.19,7.19,0,0,1-1,1.17l-3.12,2.95-.46-.82h5.56v1.85Z" transform="translate(-121.95)"/><path class="cls-20" d="M308.54,295.45a3.88,3.88,0,0,1-2.15-.6,4.19,4.19,0,0,1-1.51-1.72,7.2,7.2,0,0,1,0-5.52,4.1,4.1,0,0,1,5.83-1.73,4.06,4.06,0,0,1,1.5,1.73,7.08,7.08,0,0,1,0,5.52,4,4,0,0,1-1.5,1.72A3.89,3.89,0,0,1,308.54,295.45Zm0-1.91a1.61,1.61,0,0,0,1-.33,2.15,2.15,0,0,0,.67-1,6.74,6.74,0,0,0,0-3.62,2.31,2.31,0,0,0-.67-1,1.71,1.71,0,0,0-1-.33,1.66,1.66,0,0,0-1,.33,2.35,2.35,0,0,0-.69,1,6.74,6.74,0,0,0,0,3.62,2.19,2.19,0,0,0,.69,1A1.51,1.51,0,0,0,308.54,293.54Z" transform="translate(-121.95)"/><path class="cls-21" d="M326.62,295.45a3.88,3.88,0,0,1-2.15-.6,4.12,4.12,0,0,1-1.51-1.72,7.2,7.2,0,0,1,0-5.52,4.14,4.14,0,0,1,1.51-1.73,4.19,4.19,0,0,1,4.32,0,4.06,4.06,0,0,1,1.5,1.73,7.08,7.08,0,0,1,0,5.52,4,4,0,0,1-1.5,1.72A3.89,3.89,0,0,1,326.62,295.45Zm0-1.91a1.61,1.61,0,0,0,1-.33,2.15,2.15,0,0,0,.67-1,6.74,6.74,0,0,0,0-3.62,2.31,2.31,0,0,0-.67-1,1.71,1.71,0,0,0-1-.33,1.66,1.66,0,0,0-1,.33,2.35,2.35,0,0,0-.69,1,6.74,6.74,0,0,0,0,3.62,2.19,2.19,0,0,0,.69,1A1.51,1.51,0,0,0,326.62,293.54Z" transform="translate(-121.95)"/><path class="cls-22" d="M313.85,295.16v-1.48l3.79-3.58a4.15,4.15,0,0,0,.67-.72,1.91,1.91,0,0,0,.29-.59,1.79,1.79,0,0,0,.07-.51,1.08,1.08,0,0,0-.09-.5,1.17,1.17,0,0,0-.3-.4,1.85,1.85,0,0,0-1.18-.33,2.55,2.55,0,0,0-1.15.26,2.36,2.36,0,0,0-.89.74L313.39,287a3.79,3.79,0,0,1,1.56-1.33,5.29,5.29,0,0,1,2.34-.49,4.72,4.72,0,0,1,1.93.35,2.86,2.86,0,0,1,1.28,1,2.72,2.72,0,0,1,.46,1.56,3.3,3.3,0,0,1-.62,1.94,7.2,7.2,0,0,1-1,1.17l-3.11,2.95-.46-.83h5.56v1.86Z" transform="translate(-121.95)"/><path d="M297,297.27l2,5.81h.08l2.05-5.81H302l-2.54,6.9h-.86l-2.53-6.9Zm6,6.9V299h.79v5.18Zm.4-6a.55.55,0,0,1-.4-.16.49.49,0,0,1-.16-.38.51.51,0,0,1,.16-.38.55.55,0,0,1,.4-.16.54.54,0,0,1,.4.16.52.52,0,0,1,.17.38.5.5,0,0,1-.17.38A.54.54,0,0,1,303.41,298.13Zm4,6.15a2.45,2.45,0,0,1-1.29-.33,2.15,2.15,0,0,1-.83-.93,3.21,3.21,0,0,1-.29-1.4,3.27,3.27,0,0,1,.29-1.4,2.24,2.24,0,0,1,.82-1,2.18,2.18,0,0,1,1.22-.34,2.44,2.44,0,0,1,.8.13,2,2,0,0,1,.72.44,2.1,2.1,0,0,1,.52.8,3.33,3.33,0,0,1,.19,1.22v.33h-4v-.68h3.18a1.67,1.67,0,0,0-.18-.79,1.22,1.22,0,0,0-.49-.54,1.4,1.4,0,0,0-.75-.2,1.41,1.41,0,0,0-.82.24,1.53,1.53,0,0,0-.53.6,1.85,1.85,0,0,0-.18.81v.46a2.13,2.13,0,0,0,.2,1,1.37,1.37,0,0,0,.57.62,1.64,1.64,0,0,0,.84.21,1.7,1.7,0,0,0,.57-.09,1.18,1.18,0,0,0,.73-.72l.77.21a1.74,1.74,0,0,1-.41.69,1.94,1.94,0,0,1-.71.46A2.56,2.56,0,0,1,307.43,304.28Zm4.53-.11L310.38,299h.84l1.12,4h.06l1.1-4h.85l1.09,4h.06l1.12-4h.83l-1.57,5.18h-.79l-1.13-4h-.08l-1.13,4Zm9.61,0h-.88l2.54-6.9h.86l2.54,6.9h-.88l-2.06-5.81h-.06Zm.32-2.69h3.54v.74h-3.54Zm6.5-4.21v6.9h-.79v-6.9Zm2.26,0v6.9h-.8v-6.9Z" transform="translate(-121.95)"/><path class="cls-23" d="M220.34,397.61v-1.47l3.8-3.58a4.65,4.65,0,0,0,.67-.73,1.73,1.73,0,0,0,.28-.58,2.25,2.25,0,0,0,.08-.52,1.16,1.16,0,0,0-.1-.49,1.08,1.08,0,0,0-.3-.4,1.79,1.79,0,0,0-1.18-.33,2.42,2.42,0,0,0-1.15.26,2.36,2.36,0,0,0-.89.74l-1.67-1.07a3.79,3.79,0,0,1,1.56-1.33,5.45,5.45,0,0,1,2.34-.5,4.9,4.9,0,0,1,1.93.36,2.81,2.81,0,0,1,1.28,1,2.72,2.72,0,0,1,.46,1.56,3.3,3.3,0,0,1-.62,1.94,8.14,8.14,0,0,1-1,1.17l-3.12,2.94-.46-.82h5.56v1.85Z" transform="translate(-121.95)"/><path class="cls-24" d="M232.84,397.79a4,4,0,0,1-2.15-.6,4.28,4.28,0,0,1-1.51-1.73,7.2,7.2,0,0,1,0-5.52,4.19,4.19,0,0,1,1.51-1.72,4.13,4.13,0,0,1,4.32,0,4,4,0,0,1,1.5,1.72,7.08,7.08,0,0,1,0,5.52,3.93,3.93,0,0,1-3.67,2.33Zm0-1.92a1.61,1.61,0,0,0,1-.33,2.15,2.15,0,0,0,.67-1,6.74,6.74,0,0,0,0-3.62,2.31,2.31,0,0,0-.67-1,1.7,1.7,0,0,0-1-.32,1.65,1.65,0,0,0-1,.32,2.35,2.35,0,0,0-.69,1,6.74,6.74,0,0,0,0,3.62,2.19,2.19,0,0,0,.69,1A1.51,1.51,0,0,0,232.84,395.87Z" transform="translate(-121.95)"/><path d="M221.2,399.91l1.87,5.28h.07l1.87-5.28h.79l-2.3,6.28h-.79l-2.3-6.28Zm5.48,6.28v-4.71h.73v4.71Zm.37-5.5a.52.52,0,0,1-.36-.14.47.47,0,0,1-.15-.35.49.49,0,0,1,.15-.35.53.53,0,0,1,.72,0,.46.46,0,0,1,.16.35.44.44,0,0,1-.16.35A.52.52,0,0,1,227.05,400.69Zm3.66,5.6a2.25,2.25,0,0,1-1.18-.3,2.06,2.06,0,0,1-.75-.85,2.83,2.83,0,0,1-.27-1.27,2.9,2.9,0,0,1,.27-1.28,2,2,0,0,1,.74-.86,2,2,0,0,1,1.12-.31,2.27,2.27,0,0,1,.72.12,1.75,1.75,0,0,1,.66.4,2,2,0,0,1,.47.72,3.24,3.24,0,0,1,.17,1.11v.31H229v-.63h2.89a1.51,1.51,0,0,0-.16-.71,1.16,1.16,0,0,0-.44-.49,1.28,1.28,0,0,0-.68-.18,1.32,1.32,0,0,0-.75.21,1.41,1.41,0,0,0-.48.55,1.54,1.54,0,0,0-.17.73V404a2.08,2.08,0,0,0,.18.91,1.41,1.41,0,0,0,.52.56,1.66,1.66,0,0,0,1.28.11,1.22,1.22,0,0,0,.41-.25,1.15,1.15,0,0,0,.26-.41l.7.2a1.71,1.71,0,0,1-.37.62,1.82,1.82,0,0,1-.65.42A2.31,2.31,0,0,1,230.71,406.29Zm4.12-.1-1.44-4.71h.76l1,3.6h.05l1-3.6H237l1,3.59h0l1-3.59h.76l-1.43,4.71h-.71l-1-3.62h-.08l-1,3.62Zm8.73,0h-.79l2.3-6.28h.79l2.31,6.28h-.8l-1.88-5.29h-.05Zm.3-2.45h3.21v.67h-3.21Zm5.91-3.83v6.28h-.72v-6.28Zm2,0v6.28h-.72v-6.28Z" transform="translate(-121.95)"/><path class="cls-10" d="M296.43,498v-1.62l4.16-3.92a5,5,0,0,0,.73-.8,2.14,2.14,0,0,0,.32-.64,2.1,2.1,0,0,0,.07-.56,1.17,1.17,0,0,0-.1-.55,1.08,1.08,0,0,0-.33-.43,1.93,1.93,0,0,0-1.29-.36,2.73,2.73,0,0,0-1.26.28,2.46,2.46,0,0,0-1,.81L295.93,489a4,4,0,0,1,1.71-1.46,5.81,5.81,0,0,1,2.56-.54,5.26,5.26,0,0,1,2.11.38,3.12,3.12,0,0,1,1.4,1.11,2.89,2.89,0,0,1,.51,1.71,3.59,3.59,0,0,1-.68,2.12,8.56,8.56,0,0,1-1.13,1.28L299,496.82l-.5-.91h6.09v2Z" transform="translate(-121.95)"/><path class="cls-10" d="M310.12,498.14a4.33,4.33,0,0,1-2.35-.66,4.57,4.57,0,0,1-1.65-1.89,7.88,7.88,0,0,1-.61-3,7.8,7.8,0,0,1,.61-3,4.51,4.51,0,0,1,1.65-1.89,4.57,4.57,0,0,1,4.73,0,4.45,4.45,0,0,1,1.65,1.89,7.8,7.8,0,0,1,.61,3,7.88,7.88,0,0,1-.61,3,4.51,4.51,0,0,1-1.65,1.89A4.43,4.43,0,0,1,310.12,498.14Zm0-2.1a1.73,1.73,0,0,0,1.11-.37,2.29,2.29,0,0,0,.73-1.12,7.24,7.24,0,0,0,0-4,2.39,2.39,0,0,0-.73-1.14,1.87,1.87,0,0,0-1.09-.36,1.85,1.85,0,0,0-1.09.36,2.43,2.43,0,0,0-.75,1.14,7.24,7.24,0,0,0,0,4,2.26,2.26,0,0,0,.75,1.12A1.6,1.6,0,0,0,310.12,496Z" transform="translate(-121.95)"/><path d="M297.33,500l2.05,5.81h.08l2.05-5.81h.87l-2.53,6.91H299L296.45,500Zm6,6.91v-5.18h.8v5.18Zm.41-6.05a.54.54,0,0,1-.4-.16.5.5,0,0,1-.17-.38.52.52,0,0,1,.17-.38.58.58,0,0,1,.4-.16.57.57,0,0,1,.39.16.48.48,0,0,1,.17.38.47.47,0,0,1-.17.38A.53.53,0,0,1,303.76,500.81Zm4,6.15a2.43,2.43,0,0,1-1.29-.33,2.23,2.23,0,0,1-.84-.93,3.2,3.2,0,0,1-.29-1.39,3.32,3.32,0,0,1,.29-1.41,2.38,2.38,0,0,1,.82-.95,2.19,2.19,0,0,1,1.23-.34,2.48,2.48,0,0,1,.8.13,2,2,0,0,1,.71.44,2.1,2.1,0,0,1,.52.8,3.33,3.33,0,0,1,.19,1.22v.34h-4v-.69h3.18a1.83,1.83,0,0,0-.17-.79,1.42,1.42,0,0,0-.49-.54,1.53,1.53,0,0,0-1.58,0,1.57,1.57,0,0,0-.53.61,1.8,1.8,0,0,0-.18.8v.46a2.27,2.27,0,0,0,.2,1,1.49,1.49,0,0,0,.57.62,1.67,1.67,0,0,0,.85.21,1.6,1.6,0,0,0,.56-.09,1.2,1.2,0,0,0,.45-.27,1.15,1.15,0,0,0,.28-.45l.77.22a1.64,1.64,0,0,1-.41.68,1.9,1.9,0,0,1-.7.46A2.63,2.63,0,0,1,307.78,507Zm4.53-.1-1.58-5.18h.83l1.12,4h.06l1.1-4h.85l1.1,3.95h0l1.12-3.95h.84l-1.58,5.18h-.78l-1.14-4h-.08l-1.13,4Zm9.6,0H321l2.54-6.91h.86l2.54,6.91h-.88L324,501h0Zm.33-2.7h3.53v.74h-3.53Zm6.49-4.21v6.91h-.79V500Zm2.26,0v6.91h-.8V500Z" transform="translate(-121.95)"/><path class="cls-10" d="M317.9,497.81v-9.64l1.06,1.06H315.8v-2h4.55v10.54Z" transform="translate(-121.95)"/><path class="cls-10" d="M326.54,498a6.59,6.59,0,0,1-2.33-.39,3.54,3.54,0,0,1-1.54-1.13,2.73,2.73,0,0,1-.56-1.72,2.57,2.57,0,0,1,.54-1.67,3.44,3.44,0,0,1,1.55-1,7.82,7.82,0,0,1,4.69,0,3.49,3.49,0,0,1,1.55,1,2.57,2.57,0,0,1,.55,1.67,2.78,2.78,0,0,1-.55,1.72,3.5,3.5,0,0,1-1.56,1.13A6.65,6.65,0,0,1,326.54,498Zm0-5a6.17,6.17,0,0,1-2.13-.34,3,3,0,0,1-1.42-1,2.44,2.44,0,0,1-.51-1.54,2.55,2.55,0,0,1,.52-1.59,3.24,3.24,0,0,1,1.43-1.05,6.3,6.3,0,0,1,4.24,0,3.29,3.29,0,0,1,1.42,1.05,2.49,2.49,0,0,1,.52,1.59,2.37,2.37,0,0,1-.5,1.54,3,3,0,0,1-1.42,1,6,6,0,0,1-2.15.29Zm0,3.26a2.31,2.31,0,0,0,1.45-.4,1.33,1.33,0,0,0,.41-.5,1.51,1.51,0,0,0,.13-.63,1.3,1.3,0,0,0-.14-.61,1.24,1.24,0,0,0-.4-.48,2.82,2.82,0,0,0-1.44-.4,2.85,2.85,0,0,0-1.45.4,1.24,1.24,0,0,0-.4.48,1.29,1.29,0,0,0-.13.61,1.26,1.26,0,0,0,.13.63,1.31,1.31,0,0,0,.4.5,2.37,2.37,0,0,0,1.44.36Zm0-4.69a1.88,1.88,0,0,0,1.21-.36,1.07,1.07,0,0,0,.34-.42,1.12,1.12,0,0,0,.11-.54,1.14,1.14,0,0,0-.11-.54,1.18,1.18,0,0,0-.35-.42,1.84,1.84,0,0,0-1.2-.34,1.8,1.8,0,0,0-1.18.34,1.1,1.1,0,0,0-.34.43,1.42,1.42,0,0,0,0,1.07,1.07,1.07,0,0,0,.34.42,1.8,1.8,0,0,0,1.19.31Z" transform="translate(-121.95)"/><path class="cls-14" d="M218.8,601.28v-1.62l4.15-3.92a5.54,5.54,0,0,0,.74-.79,2,2,0,0,0,.31-.65,2.1,2.1,0,0,0,.08-.56,1.24,1.24,0,0,0-.1-.54,1.22,1.22,0,0,0-.34-.44,1.91,1.91,0,0,0-1.29-.36,2.72,2.72,0,0,0-1.25.28,2.49,2.49,0,0,0-1,.81l-1.83-1.17a4.1,4.1,0,0,1,1.71-1.46,5.82,5.82,0,0,1,2.57-.54,5.45,5.45,0,0,1,2.11.39,3.09,3.09,0,0,1,1.4,1.1,2.88,2.88,0,0,1,.5,1.71,3.58,3.58,0,0,1-.67,2.12,8.1,8.1,0,0,1-1.14,1.28l-3.42,3.23-.49-.91h6.08v2Z" transform="translate(-121.95)"/><path class="cls-14" d="M232.49,601.47a4.39,4.39,0,0,1-2.36-.66,4.58,4.58,0,0,1-1.65-1.89,7.81,7.81,0,0,1,0-6,4.33,4.33,0,0,1,4-2.55,4.63,4.63,0,0,1,2.37.66,4.42,4.42,0,0,1,1.64,1.89,7.81,7.81,0,0,1,0,6,4.31,4.31,0,0,1-4,2.55Zm0-2.1a1.73,1.73,0,0,0,1.1-.36,2.38,2.38,0,0,0,.74-1.13,7.43,7.43,0,0,0,0-4,2.41,2.41,0,0,0-.74-1.14,1.84,1.84,0,0,0-1.09-.35,1.86,1.86,0,0,0-1.09.35,2.56,2.56,0,0,0-.75,1.14,7.43,7.43,0,0,0,0,4,2.48,2.48,0,0,0,.75,1.13A1.7,1.7,0,0,0,232.49,599.37Z" transform="translate(-121.95)"/><path d="M219.68,603.32l2,5.75h.08l2-5.75h.87l-2.51,6.83h-.85l-2.51-6.83Zm6,6.83V605h.78v5.12Zm.4-6a.57.57,0,0,1-.4-.15.53.53,0,0,1,0-.76.57.57,0,0,1,.4-.15.56.56,0,0,1,.39.15.51.51,0,0,1,0,.76A.56.56,0,0,1,226,604.17Zm4,6.08a2.41,2.41,0,0,1-1.28-.32,2.22,2.22,0,0,1-.82-.92,3.45,3.45,0,0,1,0-2.77,2.19,2.19,0,0,1,.81-.94,2.14,2.14,0,0,1,1.21-.34,2.38,2.38,0,0,1,.79.13,2,2,0,0,1,.71.44,2.08,2.08,0,0,1,.51.78,3.31,3.31,0,0,1,.19,1.21v.33h-3.95v-.68h3.15a1.77,1.77,0,0,0-.17-.77,1.34,1.34,0,0,0-.49-.54,1.36,1.36,0,0,0-.74-.19,1.38,1.38,0,0,0-.81.23,1.54,1.54,0,0,0-.53.6,1.79,1.79,0,0,0-.18.79v.46a2.25,2.25,0,0,0,.2,1,1.44,1.44,0,0,0,.56.61,1.64,1.64,0,0,0,.84.21,1.6,1.6,0,0,0,.56-.09,1.16,1.16,0,0,0,.44-.27,1.33,1.33,0,0,0,.28-.44l.76.21a1.62,1.62,0,0,1-.4.68,1.88,1.88,0,0,1-.7.45A2.54,2.54,0,0,1,230,610.25Zm4.48-.1L232.93,605h.82l1.11,3.92h.06L236,605h.84l1.08,3.9h0l1.11-3.9h.83l-1.56,5.12h-.78l-1.12-3.94h-.08l-1.12,3.94Zm9.49,0h-.86l2.5-6.83h.86l2.5,6.83h-.86l-2-5.75H246Zm.32-2.67h3.5v.73h-3.5Zm6.43-4.16v6.83h-.79v-6.83Zm2.23,0v6.83h-.79v-6.83Z" transform="translate(-121.95)"/><path class="cls-14" d="M240.27,601.15V591.5l1,1.06h-3.16v-2h4.55v10.55Z" transform="translate(-121.95)"/><path class="cls-14" d="M246.87,601.22l4.34-9.79.64,1.07h-5.77l1.07-1.17v2.94H245v-3.8h8.62v1.62l-4,9.13Z" transform="translate(-121.95)"/><path class="cls-10" d="M296.17,703v-1.62l4.16-3.92a5,5,0,0,0,.73-.8,1.92,1.92,0,0,0,.32-.64,2.61,2.61,0,0,0,.08-.56,1.28,1.28,0,0,0-.1-.55,1.34,1.34,0,0,0-.34-.44,2,2,0,0,0-1.29-.36,2.74,2.74,0,0,0-1.26.29,2.53,2.53,0,0,0-1,.81L295.67,694a4,4,0,0,1,1.71-1.46,5.67,5.67,0,0,1,2.56-.54,5.23,5.23,0,0,1,2.11.38,3.13,3.13,0,0,1,1.41,1.1,2.92,2.92,0,0,1,.5,1.71,3.63,3.63,0,0,1-.67,2.12,8.77,8.77,0,0,1-1.14,1.29l-3.42,3.23-.5-.91h6.09v2Z" transform="translate(-121.95)"/><path class="cls-10" d="M309.87,703.17a4.17,4.17,0,0,1-2.36-.66,4.48,4.48,0,0,1-1.65-1.88,7.83,7.83,0,0,1,0-6.06,4.48,4.48,0,0,1,6.38-1.88,4.42,4.42,0,0,1,1.65,1.88,7.83,7.83,0,0,1,0,6.06,4.42,4.42,0,0,1-1.65,1.88A4.23,4.23,0,0,1,309.87,703.17Zm0-2.09a1.68,1.68,0,0,0,1.1-.37,2.25,2.25,0,0,0,.73-1.13,7.2,7.2,0,0,0,0-4,2.39,2.39,0,0,0-.73-1.14,1.83,1.83,0,0,0-2.18,0,2.51,2.51,0,0,0-.75,1.14,7.2,7.2,0,0,0,0,4,2.35,2.35,0,0,0,.75,1.13A1.76,1.76,0,0,0,309.87,701.08Z" transform="translate(-121.95)"/><path d="M297.05,705.06l2,5.69h.08l2-5.69H302l-2.48,6.75h-.84l-2.48-6.75Zm5.89,6.75v-5.06h.77v5.06Zm.39-5.9a.53.53,0,0,1-.39-.16.47.47,0,0,1-.16-.37.49.49,0,0,1,.16-.37.56.56,0,0,1,.78,0,.49.49,0,0,1,.16.37.47.47,0,0,1-.16.37A.53.53,0,0,1,303.33,705.91Zm3.93,6a2.41,2.41,0,0,1-1.26-.32,2.26,2.26,0,0,1-.82-.91,3.25,3.25,0,0,1-.28-1.37,3.28,3.28,0,0,1,.28-1.37,2.21,2.21,0,0,1,.8-.93,2.16,2.16,0,0,1,1.2-.33,2.36,2.36,0,0,1,.78.13,1.9,1.9,0,0,1,.7.43,2.07,2.07,0,0,1,.51.77,3.47,3.47,0,0,1,.19,1.2v.33h-3.91v-.68h3.11a1.58,1.58,0,0,0-.17-.76,1.29,1.29,0,0,0-.48-.53,1.44,1.44,0,0,0-1.53,0,1.41,1.41,0,0,0-.52.59,1.72,1.72,0,0,0-.18.78v.45a2,2,0,0,0,.2,1,1.42,1.42,0,0,0,.55.61,1.73,1.73,0,0,0,.83.2,1.59,1.59,0,0,0,.55-.09,1.22,1.22,0,0,0,.44-.26,1.33,1.33,0,0,0,.28-.44l.75.21a1.76,1.76,0,0,1-.4.67,2.06,2.06,0,0,1-.69.45A2.52,2.52,0,0,1,307.26,711.92Zm4.43-.11-1.55-5.06H311l1.09,3.88h.06l1.08-3.88H314l1.07,3.86h.05l1.09-3.86h.82l-1.54,5.06h-.77l-1.1-3.88h-.08l-1.11,3.88Zm9.38,0h-.86l2.48-6.75h.85l2.47,6.75h-.85l-2-5.68h-.05Zm.32-2.63h3.45v.72h-3.45Zm6.35-4.12v6.75H327v-6.75Zm2.2,0v6.75h-.78v-6.75Z" transform="translate(-121.95)"/><path class="cls-10" d="M317.65,702.85v-9.64l1.05,1h-3.16v-2h4.55v10.54Z" transform="translate(-121.95)"/><path class="cls-10" d="M326.52,702.85a4.76,4.76,0,0,1-2.4-.58,3.67,3.67,0,0,1-1.6-1.68,6.8,6.8,0,0,1-.55-2.85,6.94,6.94,0,0,1,.65-2.84,4.46,4.46,0,0,1,1.81-1.84,5.48,5.48,0,0,1,2.69-.64,6.51,6.51,0,0,1,1.52.18,4.39,4.39,0,0,1,1.27.51l-.87,1.72a2.42,2.42,0,0,0-.88-.4,4.26,4.26,0,0,0-1-.11,2.81,2.81,0,0,0-1.12.18,2.88,2.88,0,0,0-1,.62,3.26,3.26,0,0,0-.8,2.34V698a3.4,3.4,0,0,0,.09.64l-.65-.6a3,3,0,0,1,.71-1,2.75,2.75,0,0,1,1-.57,4.17,4.17,0,0,1,1.31-.2,4,4,0,0,1,1.76.39,3.22,3.22,0,0,1,1.25,1.09,2.9,2.9,0,0,1,.46,1.66,3.12,3.12,0,0,1-.5,1.78,3.29,3.29,0,0,1-1.37,1.16A4.39,4.39,0,0,1,326.52,702.85Zm-.13-1.74a2,2,0,0,0,.87-.19,1.35,1.35,0,0,0,.59-.52,1.51,1.51,0,0,0,.22-.8,1.39,1.39,0,0,0-.11-.6,1.36,1.36,0,0,0-.36-.5,1.81,1.81,0,0,0-1.24-.41,1.89,1.89,0,0,0-.91.2,1.52,1.52,0,0,0-.61.54,1.53,1.53,0,0,0,0,1.6,1.47,1.47,0,0,0,.61.52A2.05,2.05,0,0,0,326.39,701.11Z" transform="translate(-121.95)"/><path class="cls-10" d="M219.22,805.73v-1.61l4.15-3.93a5.05,5.05,0,0,0,.74-.79,1.9,1.9,0,0,0,.31-.64,2.24,2.24,0,0,0,.08-.57,1.26,1.26,0,0,0-.1-.54,1.22,1.22,0,0,0-.34-.44,2,2,0,0,0-1.29-.36,2.85,2.85,0,0,0-1.25.28,2.6,2.6,0,0,0-1,.82l-1.83-1.18a4.18,4.18,0,0,1,1.71-1.46,6,6,0,0,1,2.57-.54,5.45,5.45,0,0,1,2.11.39,3.15,3.15,0,0,1,1.4,1.1A2.88,2.88,0,0,1,227,798a3.58,3.58,0,0,1-.67,2.12,7.3,7.3,0,0,1-1.14,1.28l-3.42,3.23-.49-.9h6.08v2Z" transform="translate(-121.95)"/><path class="cls-10" d="M232.91,805.92a4.39,4.39,0,0,1-2.36-.66,4.58,4.58,0,0,1-1.65-1.89,7.81,7.81,0,0,1,0-6,4.64,4.64,0,0,1,1.65-1.89,4.58,4.58,0,0,1,2.37-.66,4.63,4.63,0,0,1,2.37.66,4.48,4.48,0,0,1,1.64,1.89,7.81,7.81,0,0,1,0,6,4.42,4.42,0,0,1-1.64,1.89A4.28,4.28,0,0,1,232.91,805.92Zm0-2.09a1.68,1.68,0,0,0,1.1-.37,2.38,2.38,0,0,0,.74-1.13,7.43,7.43,0,0,0,0-4,2.38,2.38,0,0,0-.74-1.13,1.85,1.85,0,0,0-1.09-.36,1.87,1.87,0,0,0-1.09.36,2.48,2.48,0,0,0-.75,1.13,7.43,7.43,0,0,0,0,4,2.48,2.48,0,0,0,.75,1.13A1.76,1.76,0,0,0,232.91,803.83Z" transform="translate(-121.95)"/><path d="M220.09,807.81l2,5.68h.08l2-5.68H225l-2.48,6.75h-.84l-2.48-6.75Zm5.89,6.75V809.5h.78v5.06Zm.39-5.9a.57.57,0,0,1-.39-.16.49.49,0,0,1-.16-.37.47.47,0,0,1,.16-.37.53.53,0,0,1,.39-.16.51.51,0,0,1,.39.16.48.48,0,0,1,.17.37.5.5,0,0,1-.17.37A.55.55,0,0,1,226.37,808.66Zm3.93,6a2.32,2.32,0,0,1-1.26-.33,2.11,2.11,0,0,1-.81-.91,3.06,3.06,0,0,1-.29-1.36,3.1,3.1,0,0,1,.29-1.37,2.19,2.19,0,0,1,.79-.93,2.21,2.21,0,0,1,1.2-.34,2.29,2.29,0,0,1,.78.14,2,2,0,0,1,.71.42,2.06,2.06,0,0,1,.5.78,3.19,3.19,0,0,1,.19,1.19v.33h-3.9v-.67h3.11a1.7,1.7,0,0,0-.17-.76,1.37,1.37,0,0,0-.48-.53,1.39,1.39,0,0,0-.74-.2,1.42,1.42,0,0,0-.8.23,1.52,1.52,0,0,0-.52.6,1.72,1.72,0,0,0-.18.78v.45a2.21,2.21,0,0,0,.2,1,1.36,1.36,0,0,0,.56.6,1.56,1.56,0,0,0,.82.21,1.64,1.64,0,0,0,.56-.09,1.12,1.12,0,0,0,.71-.7l.75.21a1.64,1.64,0,0,1-.4.67,2.06,2.06,0,0,1-.69.45A2.7,2.7,0,0,1,230.3,814.67Zm4.43-.11-1.54-5.06H234l1.1,3.87h.05l1.08-3.87h.83l1.07,3.86h.05l1.1-3.86h.81l-1.54,5.06h-.76l-1.11-3.89h-.08l-1.11,3.89Zm9.38,0h-.85l2.47-6.75h.85l2.48,6.75h-.86l-2-5.68h-.05Zm.32-2.64h3.45v.73h-3.45Zm6.35-4.11v6.75H250v-6.75Zm2.2,0v6.75h-.78v-6.75Z" transform="translate(-121.95)"/><path class="cls-10" d="M240.69,805.6V796l1.05,1h-3.16v-2h4.55V805.6Z" transform="translate(-121.95)"/><path class="cls-10" d="M248.78,805.81a8.18,8.18,0,0,1-2.14-.29,5.49,5.49,0,0,1-1.81-.82l.95-1.82a4.79,4.79,0,0,0,1.35.69,5,5,0,0,0,1.59.26,2.42,2.42,0,0,0,1.43-.37,1.27,1.27,0,0,0,.5-.79,1.28,1.28,0,0,0-.2-.91,1.46,1.46,0,0,0-.74-.47,4.85,4.85,0,0,0-1.47-.17h-2.62l.51-5.82h6.33v1.89H247l1.24-1.09-.38,4.15-1.23-1.08h2.19a5.91,5.91,0,0,1,2.46.42,2.78,2.78,0,0,1,1.37,1.14,3,3,0,0,1,.44,1.64,3.32,3.32,0,0,1-.46,1.68,3.25,3.25,0,0,1-1.41,1.26A5.52,5.52,0,0,1,248.78,805.81Z" transform="translate(-121.95)"/><path class="cls-10" d="M295.45,906.2v-1.61l4.15-3.93a4.62,4.62,0,0,0,.74-.79,2.14,2.14,0,0,0,.32-.64,2.69,2.69,0,0,0,.07-.57,1.13,1.13,0,0,0-.1-.54,1.19,1.19,0,0,0-.33-.44,2.06,2.06,0,0,0-1.29-.36,2.74,2.74,0,0,0-1.26.29,2.46,2.46,0,0,0-1,.81L295,897.25a4.07,4.07,0,0,1,1.71-1.47,5.8,5.8,0,0,1,2.56-.53,5.26,5.26,0,0,1,2.11.38,3.1,3.1,0,0,1,1.4,1.1,2.91,2.91,0,0,1,.51,1.71,3.66,3.66,0,0,1-.68,2.12,7.3,7.3,0,0,1-1.14,1.28L298,905.08l-.5-.91h6.09v2Z" transform="translate(-121.95)"/><path class="cls-10" d="M309.14,906.39a4.3,4.3,0,0,1-2.36-.66,4.65,4.65,0,0,1-1.65-1.89,7.79,7.79,0,0,1-.6-3,7.87,7.87,0,0,1,.6-3,4.71,4.71,0,0,1,1.65-1.89,4.65,4.65,0,0,1,4.74,0,4.51,4.51,0,0,1,1.65,1.89,7.88,7.88,0,0,1,.61,3,7.8,7.8,0,0,1-.61,3,4.45,4.45,0,0,1-1.65,1.89A4.26,4.26,0,0,1,309.14,906.39Zm0-2.09a1.73,1.73,0,0,0,1.11-.37,2.36,2.36,0,0,0,.73-1.13,7.39,7.39,0,0,0,0-4,2.42,2.42,0,0,0-.73-1.14,1.87,1.87,0,0,0-1.09-.36,1.83,1.83,0,0,0-1.09.36,2.4,2.4,0,0,0-.76,1.14,7.4,7.4,0,0,0,0,4,2.42,2.42,0,0,0,.76,1.13A1.72,1.72,0,0,0,309.14,904.3Z" transform="translate(-121.95)"/><path d="M296.32,908.28l2,5.68h.08l2-5.68h.86L298.79,915h-.85l-2.47-6.75Zm5.89,6.75V910H303V915Zm.4-5.9a.53.53,0,0,1-.39-.16.5.5,0,0,1-.17-.37.48.48,0,0,1,.17-.37.56.56,0,0,1,.78,0,.47.47,0,0,1,.16.37.49.49,0,0,1-.16.37A.53.53,0,0,1,302.61,909.13Zm3.93,6a2.38,2.38,0,0,1-1.27-.33,2.14,2.14,0,0,1-.81-.9,3.49,3.49,0,0,1,0-2.74,2.21,2.21,0,0,1,.8-.93,2.17,2.17,0,0,1,1.2-.34,2.38,2.38,0,0,1,.78.14,1.78,1.78,0,0,1,.7.43,1.94,1.94,0,0,1,.5.77,3.25,3.25,0,0,1,.19,1.2v.32h-3.9v-.67h3.11a1.7,1.7,0,0,0-.17-.76,1.23,1.23,0,0,0-.48-.53,1.35,1.35,0,0,0-.73-.2,1.45,1.45,0,0,0-.81.23,1.56,1.56,0,0,0-.51.6,1.61,1.61,0,0,0-.19.78v.45a2.18,2.18,0,0,0,.2,1,1.36,1.36,0,0,0,.56.6,1.74,1.74,0,0,0,1.38.12,1.1,1.1,0,0,0,.43-.26,1.18,1.18,0,0,0,.28-.44l.75.21a1.64,1.64,0,0,1-.4.67,1.88,1.88,0,0,1-.69.45A2.65,2.65,0,0,1,306.54,915.14ZM311,915,309.42,910h.82l1.09,3.88h.05l1.08-3.88h.83l1.07,3.86h.06l1.09-3.86h.82L314.78,915H314l-1.11-3.89h-.08l-1.1,3.89Zm9.39,0h-.86l2.48-6.75h.84l2.48,6.75h-.86l-2-5.68h-.06Zm.31-2.63h3.46v.72h-3.46Zm6.35-4.12V915h-.77v-6.75Zm2.21,0V915h-.78v-6.75Z" transform="translate(-121.95)"/><path class="cls-10" d="M316.92,906.07v-9.64l1.06,1.05h-3.17v-2h4.56v10.55Z" transform="translate(-121.95)"/><path class="cls-10" d="M320.8,903.72v-1.66l4.94-6.66h2.55l-4.82,6.66-1.2-.34h8.25v2Zm5.65,2.21v-2.21l.07-2v-2h2.29v6.15Z" transform="translate(-121.95)"/><path class="cls-12" d="M240.17,397.31v-8.86l1,1h-2.91v-1.8h4.18v9.69Z" transform="translate(-121.95)"/><path class="cls-12" d="M247.49,387.46a4.63,4.63,0,0,1,2.32.55,3.53,3.53,0,0,1,1.49,1.61,6.83,6.83,0,0,1-.11,5.48,4.36,4.36,0,0,1-1.74,1.77,5.28,5.28,0,0,1-2.57.61,5.92,5.92,0,0,1-1.47-.18,4,4,0,0,1-1.21-.49l.81-1.64a2.59,2.59,0,0,0,.87.38,4.34,4.34,0,0,0,1,.1,2.62,2.62,0,0,0,2-.77,3.08,3.08,0,0,0,.74-2.25c0-.16,0-.35,0-.55a4.22,4.22,0,0,0-.07-.61l.61.58a2.63,2.63,0,0,1-.66.91,3,3,0,0,1-1,.55,3.89,3.89,0,0,1-1.27.19,3.84,3.84,0,0,1-1.68-.37,3,3,0,0,1-1.21-1.06,2.8,2.8,0,0,1-.45-1.59,3.06,3.06,0,0,1,.49-1.71,3.32,3.32,0,0,1,1.33-1.12A4.35,4.35,0,0,1,247.49,387.46Zm.14,1.67a1.87,1.87,0,0,0-.85.18,1.25,1.25,0,0,0-.57.49,1.5,1.5,0,0,0-.2.77,1.34,1.34,0,0,0,.45,1.06,1.77,1.77,0,0,0,1.2.39,1.86,1.86,0,0,0,.87-.19,1.47,1.47,0,0,0,.58-.52,1.34,1.34,0,0,0,.21-.75,1.4,1.4,0,0,0-.2-.73,1.29,1.29,0,0,0-.57-.51A2,2,0,0,0,247.63,389.13Z" transform="translate(-121.95)"/></svg>