<svg xmlns="http://www.w3.org/2000/svg" version="1.1" xmlns:xlink="http://www.w3.org/1999/xlink" xmlns:svgjs="http://svgjs.com/svgjs" width="512" height="512" x="0" y="0" viewBox="0 0 682.667 682.667" style="enable-background:new 0 0 512 512" xml:space="preserve" class=""><g><defs><clipPath id="b" clipPathUnits="userSpaceOnUse"><path d="M0 512h512V0H0Z" fill="#1d2a4d" data-original="#000000"></path></clipPath></defs><mask id="a"><rect width="100%" height="100%" fill="#ffffff" data-original="#ffffff"></rect></mask><g mask="url(#a)"><g clip-path="url(#b)" transform="matrix(1.33333 0 0 -1.33333 0 682.667)"><path d="M0 0h-76.688c-5.786 0-10.477-4.691-10.477-10.477v-138.527c0-5.785 4.691-10.476 10.477-10.476H0c5.786 0 10.476 4.691 10.476 10.476v138.527C10.476-4.691 5.786 0 0 0Z" style="stroke-width:15;stroke-linecap:round;stroke-linejoin:round;stroke-miterlimit:10;stroke-dasharray:none;stroke-opacity:1" transform="translate(177.25 305.352)" fill="none" stroke="#1d2a4d" stroke-width="15" stroke-linecap="round" stroke-linejoin="round" stroke-miterlimit="10" stroke-dasharray="none" stroke-opacity="" data-original="#000000"></path><path d="M0 0c.375 11.59-9 21.216-20.534 21.216h-.041v.007l1.714.001c11.196.008 20.264 9.094 20.258 20.289-.01 11.198-9.094 20.208-20.289 20.199h-84.347c-2.351 0-4.015 2.297-3.283 4.531l7.392 22.567c6.291 19.204 5.172 32.281 5.172 54.774 0 13.231-10.725 23.957-23.957 23.957-12.018 0-22.177-8.905-23.751-20.82-1.74-13.183-2.913-36.627-24.708-57.613l-15.383-14.811a45.984 45.984 0 0 0-31.898-12.861h-15.48V-71.543l11.823.005c29.369.018 26.684-29.066 63.208-29.032h124.309c11.182 0 20.248 9.065 20.248 20.247v.002c0 11.182-9.066 20.247-20.248 20.247h3.566c11.005 0 20.4 8.557 20.767 19.556.383 11.498-8.825 20.941-20.237 20.941h4.925C-9.76-19.577-.356-11.009 0 0Z" style="stroke-width:15;stroke-linecap:round;stroke-linejoin:round;stroke-miterlimit:10;stroke-dasharray:none;stroke-opacity:1" transform="translate(416.86 231.966)" fill="none" stroke="#1d2a4d" stroke-width="15" stroke-linecap="round" stroke-linejoin="round" stroke-miterlimit="10" stroke-dasharray="none" stroke-opacity="" data-original="#000000"></path><path d="M0 0h22.104" style="stroke-width:15;stroke-linecap:round;stroke-linejoin:round;stroke-miterlimit:10;stroke-dasharray:none;stroke-opacity:1" transform="translate(127.853 183.334)" fill="none" stroke="#1d2a4d" stroke-width="15" stroke-linecap="round" stroke-linejoin="round" stroke-miterlimit="10" stroke-dasharray="none" stroke-opacity="" data-original="#000000"></path><path d="M0 0h-24.838" style="stroke-width:15;stroke-linecap:round;stroke-linejoin:round;stroke-miterlimit:10;stroke-dasharray:none;stroke-opacity:1" transform="translate(388.918 171.884)" fill="none" stroke="#1d2a4d" stroke-width="15" stroke-linecap="round" stroke-linejoin="round" stroke-miterlimit="10" stroke-dasharray="none" stroke-opacity="" data-original="#000000"></path><path d="M0 0h-25.368" style="stroke-width:15;stroke-linecap:round;stroke-linejoin:round;stroke-miterlimit:10;stroke-dasharray:none;stroke-opacity:1" transform="translate(389.448 212.38)" fill="none" stroke="#1d2a4d" stroke-width="15" stroke-linecap="round" stroke-linejoin="round" stroke-miterlimit="10" stroke-dasharray="none" stroke-opacity="" data-original="#000000"></path><path d="M0 0h-32.206" style="stroke-width:15;stroke-linecap:round;stroke-linejoin:round;stroke-miterlimit:10;stroke-dasharray:none;stroke-opacity:1" transform="translate(396.286 253.182)" fill="none" stroke="#1d2a4d" stroke-width="15" stroke-linecap="round" stroke-linejoin="round" stroke-miterlimit="10" stroke-dasharray="none" stroke-opacity="" data-original="#000000"></path><path d="M0 0c-4.024 57.815-28.006 114.468-71.955 158.417v0c-43.949 43.949-100.601 67.931-158.417 71.955" style="stroke-width:15;stroke-linecap:round;stroke-linejoin:round;stroke-miterlimit:10;stroke-dasharray:none;stroke-opacity:1" transform="translate(503.872 273.5)" fill="none" stroke="#1d2a4d" stroke-width="15" stroke-linecap="round" stroke-linejoin="round" stroke-miterlimit="10" stroke-dasharray="none" stroke-opacity="" data-original="#000000"></path><path d="M0 0c-57.818-4.022-114.474-28.004-158.425-71.955l-.001-.001c-82.125-82.124-94.53-208.601-37.242-304.142 2.845-4.746 3.598-10.457 1.978-15.749l-27.368-89.428c-.967-3.163 1.992-6.122 5.155-5.154l89.428 27.367c5.292 1.62 11.003.868 15.749-1.978 95.541-57.288 222.017-44.883 304.142 37.242l.001.001c43.951 43.951 67.933 100.607 71.955 158.425" style="stroke-width:15;stroke-linecap:round;stroke-linejoin:round;stroke-miterlimit:10;stroke-dasharray:none;stroke-opacity:1" transform="translate(238.5 503.872)" fill="none" stroke="#1d2a4d" stroke-width="15" stroke-linecap="round" stroke-linejoin="round" stroke-miterlimit="10" stroke-dasharray="none" stroke-opacity="" data-original="#000000"></path></g></g></g></svg>