<svg xmlns="http://www.w3.org/2000/svg" version="1.1" xmlns:xlink="http://www.w3.org/1999/xlink" xmlns:svgjs="http://svgjs.com/svgjs" width="512" height="512" x="0" y="0" viewBox="0 0 512 512" style="enable-background:new 0 0 512 512" xml:space="preserve" class=""><g><path d="M437.67 376.61a8 8 0 0 0-4.71-3.92l-30.54-9.54a7.99 7.99 0 0 0-10.02 5.25l-2.4 7.67-68.68-21.45-32.26-10.14a23.98 23.98 0 0 0-19.2 2.11l-83.15 48.03a24.1 24.1 0 0 0-11.84 14.84l-65.45-20.43a24 24 0 0 0-30.06 15.75l-4.77 15.27a24.005 24.005 0 0 0 15.75 30.07l168.45 52.6a23.886 23.886 0 0 0 18.1-1.55l69.48-35.75a8.064 8.064 0 0 1 6.04-.52l8.98 2.81-2.38 7.6a8.01 8.01 0 0 0 5.25 10.02l30.55 9.54a7.922 7.922 0 0 0 2.39.36 8 8 0 0 0 7.63-5.61l33.39-106.91a8.036 8.036 0 0 0-.55-6.1Zm-80.49 73.02a23.834 23.834 0 0 0-18.14 1.57l-69.44 35.73a7.976 7.976 0 0 1-6.04.51l-168.45-52.6a8 8 0 0 1-5.25-10.02l4.77-15.27a7.975 7.975 0 0 1 10.02-5.25l72.03 22.49a1.009 1.009 0 0 1 .07.15l7.43 14.16a24.007 24.007 0 0 0 32.4 10.12l63.77-33.42a8 8 0 1 0-7.43-14.17l-63.77 33.42a8.007 8.007 0 0 1-10.8-3.37l-7.42-14.17a8.335 8.335 0 0 1-.61-1.49 8.008 8.008 0 0 1 3.98-9.31c.1-.05.19-.11.29-.16l83.28-48.11a7.985 7.985 0 0 1 6.39-.7l32.28 10.15 68.69 21.45-19.07 61.09Zm34.76 27.58-15.27-4.77 28.62-91.63 15.27 4.77ZM256 328c88.225 0 160-71.775 160-160a159.488 159.488 0 0 0-6.787-46.124l13.676 7.186a8 8 0 0 0 11.606-8.434l-5.9-34.395 24.989-24.353a8 8 0 0 0-4.435-13.647l-34.536-5.015-15.438-31.3a8 8 0 0 0-14.35 0l-15.438 31.3-11.334 1.647A159.27 159.27 0 0 0 256 8C167.775 8 96 79.775 96 168s71.775 160 160 160ZM381.875 54.069 392 33.543l10.125 20.526a8 8 0 0 0 6.025 4.378l22.656 3.29-16.39 15.974a8 8 0 0 0-2.3 7.082l3.871 22.567-15.559-8.175A160.648 160.648 0 0 0 372.9 58.877l2.955-.43a8 8 0 0 0 6.02-4.378ZM256 24c79.4 0 144 64.6 144 144s-64.6 144-144 144-144-64.6-144-144S176.6 24 256 24Z" fill="#1d2a4d" data-original="#000000" class=""></path><path d="M176 216c0 35.29 35.888 64 80 64s80-28.71 80-64a8 8 0 0 0-8-8H184a8 8 0 0 0-8 8Zm143.111 8c-5.093 22.673-31.455 40-63.111 40s-58.018-17.327-63.111-40ZM160 152a8 8 0 0 0 8-8 24 24 0 0 1 48 0 8 8 0 0 0 16 0 40 40 0 0 0-80 0 8 8 0 0 0 8 8ZM288 152a8 8 0 0 0 8-8 24 24 0 0 1 48 0 8 8 0 0 0 16 0 40 40 0 0 0-80 0 8 8 0 0 0 8 8ZM106.609 376.98a8 8 0 0 0 7.886-9.352l-5.9-34.394 24.988-24.357a8 8 0 0 0-4.434-13.646l-34.533-5.018-15.442-31.291a8 8 0 0 0-14.348 0l-15.443 31.291-34.533 5.018a8 8 0 0 0-4.434 13.646L35.4 333.234l-5.9 34.394a8 8 0 0 0 11.607 8.434L72 359.823l30.888 16.239a7.994 7.994 0 0 0 3.721.918ZM75.723 343.7a8 8 0 0 0-7.446 0l-20.262 10.656 3.87-22.562a8 8 0 0 0-2.3-7.081l-16.394-15.979 22.655-3.292a8 8 0 0 0 6.023-4.377L72 280.538l10.131 20.527a8 8 0 0 0 6.023 4.377l22.655 3.292-16.393 15.979a8 8 0 0 0-2.3 7.081l3.87 22.562ZM503.608 263.27a8 8 0 0 0-6.458-5.446l-23.477-3.411-10.5-21.274a8 8 0 0 0-14.348 0l-10.5 21.274-23.477 3.411a8 8 0 0 0-4.434 13.646l16.986 16.559-4.01 23.382a8 8 0 0 0 11.61 8.434l21-11.04 21 11.04a8 8 0 0 0 11.607-8.434l-4.01-23.382 16.988-16.559a8 8 0 0 0 2.023-8.2Zm-33.192 16.238a8 8 0 0 0-2.3 7.081l1.984 11.551-10.374-5.454a8 8 0 0 0-7.446 0l-10.38 5.454 1.982-11.551a8 8 0 0 0-2.3-7.081l-8.393-8.181 11.6-1.685a8 8 0 0 0 6.023-4.377L456 254.756l5.187 10.509a8 8 0 0 0 6.023 4.377l11.6 1.685ZM35.4 76.029l-4.01 23.382A8 8 0 0 0 43 107.845l21-11.04 21 11.04a8 8 0 0 0 11.607-8.434L92.6 76.029l16.984-16.559a8 8 0 0 0-4.434-13.646l-23.477-3.411-10.5-21.274a8 8 0 0 0-14.348 0l-10.5 21.274-23.475 3.411a8 8 0 0 0-4.434 13.646Zm17.39-18.387a8 8 0 0 0 6.023-4.377L64 42.756l5.187 10.509a8 8 0 0 0 6.023 4.377l11.6 1.685-8.393 8.181a8 8 0 0 0-2.3 7.081L78.1 86.14l-10.377-5.454a8 8 0 0 0-7.446 0L49.9 86.14l1.982-11.551a8 8 0 0 0-2.3-7.081l-8.393-8.181Z" fill="#1d2a4d" data-original="#000000" class=""></path></g></svg>