<?xml version="1.0"?>
<svg xmlns="http://www.w3.org/2000/svg" viewBox="0 0 512 512" width="512" height="512"><g id="Outline"><path d="M488,144H449.616a127.369,127.369,0,0,0-7.338-17.706l27.139-27.148a8,8,0,0,0,0-11.313l-45.25-45.25a8,8,0,0,0-11.313,0L385.706,69.722A127.369,127.369,0,0,0,368,62.384V24a8,8,0,0,0-8-8H296a8,8,0,0,0-8,8V62.384a127.369,127.369,0,0,0-17.706,7.338L243.146,42.583a8,8,0,0,0-11.313,0l-45.25,45.25a8,8,0,0,0,0,11.313l27.139,27.148A127.369,127.369,0,0,0,206.384,144H168a8,8,0,0,0-8,8v56h16V160h36.32a8,8,0,0,0,7.711-5.869,111.258,111.258,0,0,1,10.5-25.337,8,8,0,0,0-1.3-9.61L203.553,93.491l33.938-33.938,25.693,25.685a8,8,0,0,0,9.61,1.3,111.258,111.258,0,0,1,25.337-10.5A8,8,0,0,0,304,68.32V32h48V68.32a8,8,0,0,0,5.869,7.711,111.258,111.258,0,0,1,25.337,10.5,8,8,0,0,0,9.61-1.3l25.693-25.685,33.938,33.938-25.685,25.693a8,8,0,0,0-1.3,9.61,111.258,111.258,0,0,1,10.5,25.337A8,8,0,0,0,443.68,160H480v48H443.68a8,8,0,0,0-7.711,5.869,111.258,111.258,0,0,1-10.5,25.337,8,8,0,0,0,1.3,9.61l25.685,25.693-33.938,33.938-25.693-25.685a8,8,0,0,0-9.61-1.3,111.258,111.258,0,0,1-25.337,10.5A8,8,0,0,0,352,299.68V312h16v-6.384a127.369,127.369,0,0,0,17.706-7.338l27.148,27.139a8,8,0,0,0,11.313,0l45.25-45.25a8,8,0,0,0,0-11.313l-27.139-27.148A127.369,127.369,0,0,0,449.616,224H488a8,8,0,0,0,8-8V152A8,8,0,0,0,488,144Z"/><path d="M368,184a40,40,0,1,0-40,40A40.045,40.045,0,0,0,368,184Zm-64,0a24,24,0,1,1,24,24A24.027,24.027,0,0,1,304,184Z"/><path d="M416,184a88,88,0,1,0-171.97,26.4L259.3,205.6A72.013,72.013,0,1,1,328,256v16A88.1,88.1,0,0,0,416,184Z"/><path d="M45.894,482.229l113.429,11.343C175.431,495.183,191.808,496,208,496s32.569-.817,48.677-2.428l113.429-11.343A33.192,33.192,0,0,0,368,416.03V400A160.073,160.073,0,0,0,247.878,245.024a39.988,39.988,0,0,0-79.755,0A160.05,160.05,0,0,0,48,400v16.03a33.192,33.192,0,0,0-2.106,66.2ZM184,248a24,24,0,0,1,48,0V368H184ZM64,400a143.762,143.762,0,0,1,56-113.956V384h16V275.306a143.666,143.666,0,0,1,32-13.663V376a8,8,0,0,0,8,8h64a8,8,0,0,0,8-8V261.632a142.745,142.745,0,0,1,32,13.634V384h16V286.025a145.161,145.161,0,0,1,13.824,12.153A143.021,143.021,0,0,1,352,400v16H64ZM49.2,432H366.8a17.2,17.2,0,0,1,1.711,34.309L255.085,477.651C239.5,479.21,223.662,480,208,480s-31.5-.79-47.085-2.349L47.486,466.309A17.2,17.2,0,0,1,49.2,432Z"/><path d="M121.839,211.773l15.859-2.117A194.58,194.58,0,0,1,136,184,191.867,191.867,0,0,1,203.212,38.078l-10.4-12.156A207.848,207.848,0,0,0,120,184,210.709,210.709,0,0,0,121.839,211.773Z"/><path d="M128.265,242.236l15.362-4.472c-1.24-4.261-2.346-8.624-3.286-12.969L124.7,228.18C125.722,232.889,126.92,237.618,128.265,242.236Z"/><path d="M381.941,368.321l4.486,15.359A208.559,208.559,0,0,0,473.239,332.9l-11.173-11.453A192.488,192.488,0,0,1,381.941,368.321Z"/><path d="M494.4,308.825,481.6,299.214c-2.664,3.545-5.488,7.046-8.4,10.405L485.3,320.092C488.453,316.455,491.512,312.664,494.4,308.825Z"/></g></svg>
